<svg width="800" height="800" viewBox="0 0 800 800" fill="none" xmlns="http://www.w3.org/2000/svg">
<path d="M798.662 303.463C795.687 294.575 787.987 288.1 778.725 286.675L532.8 249.1L422.612 14.375C418.487 5.6 409.662 0 399.975 0C390.287 0 381.475 5.6 377.337 14.375L267.15 249.1L21.2249 286.687C11.9624 288.1 4.27489 294.587 1.28739 303.475C-1.68761 312.35 0.549888 322.15 7.09989 328.863L185.775 512.075L143.55 770.875C142 780.325 145.987 789.837 153.825 795.337C158.125 798.375 163.162 799.913 168.212 799.913C172.362 799.913 176.537 798.863 180.312 796.788L399.962 675.3L619.612 796.788C623.387 798.863 627.562 799.913 631.712 799.913C636.762 799.913 641.812 798.375 646.1 795.337C653.937 789.837 657.925 780.325 656.375 770.875L614.15 512.075L792.825 328.863C799.387 322.138 801.637 312.338 798.662 303.463Z" fill="#FE5E00"/>
</svg>
