<svg width="732" height="732" viewBox="0 0 732 732" fill="none" xmlns="http://www.w3.org/2000/svg">
<path d="M271.105 146.279C313.327 70.5375 334.437 32.6665 366 32.6665C397.563 32.6665 418.673 70.5372 460.893 146.279L471.817 165.874C483.817 187.398 489.813 198.16 499.17 205.26C508.523 212.361 520.17 214.996 543.47 220.268L564.683 225.067C646.67 243.618 687.667 252.894 697.42 284.258C707.173 315.62 679.227 348.303 623.33 413.663L608.87 430.573C592.987 449.146 585.043 458.433 581.47 469.923C577.9 481.413 579.1 493.803 581.5 518.587L583.687 541.146C592.137 628.353 596.363 671.956 570.83 691.34C545.293 710.723 506.91 693.05 430.143 657.706L410.283 648.56C388.47 638.517 377.563 633.493 366 633.493C354.437 633.493 343.53 638.517 321.717 648.56L301.857 657.706C225.089 693.05 186.706 710.723 161.172 691.34C135.637 671.956 139.863 628.353 148.313 541.146L150.499 518.587C152.901 493.803 154.102 481.413 150.529 469.923C146.956 458.433 139.014 449.146 123.131 430.573L108.67 413.663C52.7749 348.303 24.8272 315.62 34.5806 284.258C44.3339 252.894 85.3286 243.618 167.318 225.067L188.53 220.268C211.828 214.996 223.478 212.361 232.831 205.26C242.185 198.16 248.184 187.398 260.182 165.874L271.105 146.279Z" stroke="#999999" stroke-width="65"/>
</svg>
