<svg width="568" height="559" viewBox="0 0 568 559" fill="none" xmlns="http://www.w3.org/2000/svg">
<path d="M485.666 81.6667C433.253 29.476 362.3 0.174332 288.333 0.174332C214.367 0.174332 143.413 29.476 90.9998 81.6667L50.6665 122V25C50.6665 18.3697 48.0325 12.011 43.3442 7.32233C38.6558 2.63399 32.2968 0 25.6665 0C19.0362 0 12.6772 2.63399 7.98884 7.32233C3.30051 12.011 0.666504 18.3697 0.666504 25V183C0.665837 189.662 3.28917 196.055 7.96817 200.797C12.6472 205.538 19.0055 208.246 25.6665 208.333H184C190.63 208.333 196.989 205.7 201.677 201.011C206.366 196.323 209 189.964 209 183.333C209 176.703 206.366 170.344 201.677 165.656C196.989 160.967 190.63 158.333 184 158.333H83.9998L126.333 117C169.328 74.0917 227.59 49.993 288.333 49.993C349.076 49.993 407.336 74.0917 450.333 117C656.666 340 350.333 647.333 126.333 441C121.645 436.32 115.291 433.69 108.666 433.69C102.041 433.69 95.6875 436.32 90.9998 441C88.6412 443.3 86.7668 446.047 85.4868 449.08C84.2068 452.113 83.5475 455.373 83.5475 458.667C83.5475 461.96 84.2068 465.22 85.4868 468.253C86.7668 471.287 88.6412 474.037 90.9998 476.333C143.336 528.67 214.319 558.073 288.333 558.073C362.346 558.073 433.33 528.67 485.666 476.333C538.003 423.997 567.403 353.013 567.403 279C567.403 204.986 538.003 134.003 485.666 81.6667Z" fill="white"/>
<path d="M284 137.333C277.397 137.419 271.087 140.081 266.417 144.751C261.747 149.421 259.087 155.729 259 162.333V279C259.007 285.626 261.643 291.983 266.333 296.666L350.667 379C352.973 381.336 355.727 383.19 358.76 384.45C361.793 385.706 365.05 386.35 368.333 386.333C372.723 385.693 376.863 383.896 380.33 381.13C383.797 378.363 386.463 374.72 388.06 370.58C389.653 366.443 390.12 361.953 389.407 357.573C388.693 353.196 386.827 349.086 384 345.666L308 269.666V162.333C307.923 155.897 305.4 149.731 300.943 145.087C296.487 140.444 290.427 137.671 284 137.333Z" fill="white"/>
</svg>
