<svg width="692" height="504" viewBox="0 0 692 504" fill="none" xmlns="http://www.w3.org/2000/svg">
<path d="M251.638 440.35C243.646 447.81 237.461 452.804 231.14 456.454C200.2 474.317 162.081 474.317 131.141 456.454C119.739 449.87 108.779 438.91 86.8595 416.994C64.9398 395.074 53.9798 384.114 47.3975 372.71C29.5342 341.77 29.5342 303.65 47.3975 272.71C53.9798 261.31 64.9398 250.35 86.8595 228.43L181.14 134.15C203.06 112.23 214.02 101.27 225.421 94.6876C256.361 76.8243 294.482 76.8243 325.422 94.6873C336.822 101.27 347.782 112.23 369.702 134.15C391.622 156.069 402.582 167.029 409.165 178.43C427.028 209.37 427.028 247.49 409.165 278.43C405.515 284.75 400.522 290.937 393.058 298.927M299.205 205.074C291.742 213.064 286.748 219.25 283.098 225.57C265.236 256.51 265.236 294.63 283.098 325.57C289.682 336.974 300.642 347.934 322.562 369.85C344.482 391.77 355.442 402.73 366.842 409.314C397.782 427.177 435.902 427.177 466.842 409.314C478.245 402.73 489.205 391.77 511.125 369.85L605.405 275.57C627.325 253.65 638.285 242.69 644.865 231.29C662.729 200.35 662.729 162.23 644.865 131.29C638.285 119.889 627.325 108.929 605.405 87.0089C583.485 65.0893 572.525 54.1296 561.125 47.5469C530.182 29.6836 492.065 29.6836 461.125 47.5469C454.802 51.1962 448.618 56.1906 440.625 63.6519" stroke="white" stroke-width="66.6667" stroke-linecap="round"/>
</svg>
