<svg width="800" height="800" viewBox="0 0 800 800" fill="none" xmlns="http://www.w3.org/2000/svg">
<path d="M266.667 200.022L700 200.046M266.667 400.023L700 400.05M266.667 600.023L700 600.05M116.667 200H117M116.667 400H117M116.667 600H117M133.333 200C133.333 209.205 125.871 216.667 116.667 216.667C107.462 216.667 100 209.205 100 200C100 190.795 107.462 183.333 116.667 183.333C125.871 183.333 133.333 190.795 133.333 200ZM133.333 400C133.333 409.203 125.871 416.667 116.667 416.667C107.462 416.667 100 409.203 100 400C100 390.797 107.462 383.333 116.667 383.333C125.871 383.333 133.333 390.797 133.333 400ZM133.333 600C133.333 609.203 125.871 616.667 116.667 616.667C107.462 616.667 100 609.203 100 600C100 590.797 107.462 583.333 116.667 583.333C125.871 583.333 133.333 590.797 133.333 600Z" stroke="white" stroke-width="66.6667" stroke-linecap="round" stroke-linejoin="round"/>
</svg>
