<svg width="12" height="12" viewBox="0 0 12 12" fill="none" xmlns="http://www.w3.org/2000/svg">
<g clip-path="url(#clip0_162_20)">
<path d="M9.8715 9.0225L7.956 8.54351L7.79299 7.8915C8.3055 7.38401 8.6565 6.687 8.76049 5.97199C9.04448 5.892 9.26449 5.64848 9.30248 5.343L9.42748 4.34299C9.45398 4.13198 9.38897 3.91849 9.24898 3.75848C9.16697 3.66448 9.06347 3.59348 8.94898 3.54998L8.99498 2.60848L9.18199 2.42098C9.4635 2.12147 9.69698 1.60798 9.20899 0.862969C8.83399 0.290508 8.19701 0 7.31501 0C6.96701 0 6.16601 0 5.42002 0.501C3.28999 0.545508 3 1.53499 3 2.50001C3 2.72452 3.05449 3.23002 3.09049 3.53501C2.96198 3.57551 2.8455 3.65051 2.75449 3.75401C2.61199 3.91552 2.54599 4.13002 2.5725 4.34351L2.69749 5.34352C2.73848 5.66951 2.98598 5.92601 3.29899 5.98702C3.40249 6.67451 3.73549 7.34902 4.21849 7.84802L4.04449 8.54452L2.12899 9.02351C0.874992 9.336 0 10.457 0 11.75C0 11.888 0.112008 12 0.250008 12H11.75C11.888 12 12 11.887 12 11.749C12 10.457 11.125 9.336 9.8715 9.0225Z" fill="#4480FE"/>
</g>
<defs>
<clipPath id="clip0_162_20">
<rect width="12" height="12" fill="white"/>
</clipPath>
</defs>
</svg>
