<svg width="110" height="91" viewBox="0 0 110 91" fill="none" xmlns="http://www.w3.org/2000/svg">
<g filter="url(#filter0_d_288_38)">
<path d="M4 88.5329C6.09654 75.3704 17.7326 52.988 48.0276 52.9941C61.4963 52.9964 68.9124 55.1607 76.2 61.2325M95.2 88.5329C94.2348 85.3009 94.4142 82.6081 91.4 77.7921" stroke="white" stroke-width="6"/>
<path d="M49.5996 42.0769C60.0929 42.0769 68.5996 33.5531 68.5996 23.0385C68.5996 12.5238 60.0929 4 49.5996 4C39.1062 4 30.5996 12.5238 30.5996 23.0385C30.5996 33.5531 39.1062 42.0769 49.5996 42.0769Z" stroke="white" stroke-width="6"/>
<path d="M57.2002 65.6821L72.4002 80.9129L106.6 42.8359" stroke="white" stroke-width="6"/>
</g>
<defs>
<filter id="filter0_d_288_38" x="0.170443" y="0.533334" width="109.528" height="90.124" filterUnits="userSpaceOnUse" color-interpolation-filters="sRGB">
<feFlood flood-opacity="0" result="BackgroundImageFix"/>
<feColorMatrix in="SourceAlpha" type="matrix" values="0 0 0 0 0 0 0 0 0 0 0 0 0 0 0 0 0 0 127 0" result="hardAlpha"/>
<feOffset dy="0.4"/>
<feGaussianBlur stdDeviation="0.433333"/>
<feComposite in2="hardAlpha" operator="out"/>
<feColorMatrix type="matrix" values="0 0 0 0 0.920833 0 0 0 0 0.920833 0 0 0 0 0.920833 0 0 0 0.21 0"/>
<feBlend mode="normal" in2="BackgroundImageFix" result="effect1_dropShadow_288_38"/>
<feBlend mode="normal" in="SourceGraphic" in2="effect1_dropShadow_288_38" result="shape"/>
</filter>
</defs>
</svg>
