<svg width="600" height="600" viewBox="0 0 600 600" fill="none" xmlns="http://www.w3.org/2000/svg">
<path d="M33.3333 333.333H233.333C242.174 333.333 250.652 329.821 256.904 323.57C263.155 317.319 266.667 308.841 266.667 300V33.3333C266.667 24.4928 263.155 16.0143 256.904 9.76311C250.652 3.51189 242.174 0 233.333 0H33.3333C24.4928 0 16.0143 3.51189 9.76311 9.76311C3.51189 16.0143 0 24.4928 0 33.3333V300C0 308.841 3.51189 317.319 9.76311 323.57C16.0143 329.821 24.4928 333.333 33.3333 333.333ZM0 566.667C0 575.507 3.51189 583.986 9.76311 590.237C16.0143 596.488 24.4928 600 33.3333 600H233.333C242.174 600 250.652 596.488 256.904 590.237C263.155 583.986 266.667 575.507 266.667 566.667V433.333C266.667 424.493 263.155 416.014 256.904 409.763C250.652 403.512 242.174 400 233.333 400H33.3333C24.4928 400 16.0143 403.512 9.76311 409.763C3.51189 416.014 0 424.493 0 433.333V566.667ZM333.333 566.667C333.333 575.507 336.845 583.986 343.096 590.237C349.348 596.488 357.826 600 366.667 600H566.667C575.507 600 583.986 596.488 590.237 590.237C596.488 583.986 600 575.507 600 566.667V333.333C600 324.493 596.488 316.014 590.237 309.763C583.986 303.512 575.507 300 566.667 300H366.667C357.826 300 349.348 303.512 343.096 309.763C336.845 316.014 333.333 324.493 333.333 333.333V566.667ZM366.667 233.333H566.667C575.507 233.333 583.986 229.821 590.237 223.57C596.488 217.319 600 208.841 600 200V33.3333C600 24.4928 596.488 16.0143 590.237 9.76311C583.986 3.51189 575.507 0 566.667 0H366.667C357.826 0 349.348 3.51189 343.096 9.76311C336.845 16.0143 333.333 24.4928 333.333 33.3333V200C333.333 208.841 336.845 217.319 343.096 223.57C349.348 229.821 357.826 233.333 366.667 233.333Z" fill="black"/>
</svg>
