<svg width="484" height="317" viewBox="0 0 484 317" fill="none" xmlns="http://www.w3.org/2000/svg">
<path d="M475.537 140.217C480.717 144.953 483.667 151.647 483.667 158.667C483.667 165.687 480.717 172.38 475.537 177.117L329.703 310.451C319.513 319.767 303.7 319.059 294.383 308.869C285.067 298.679 285.773 282.866 295.963 273.549L394.273 183.667L25.3333 183.667C11.5263 183.667 0.333252 172.473 0.333252 158.667C0.333252 144.86 11.5263 133.667 25.3333 133.667L394.273 133.667L295.963 43.7834C285.773 34.4667 285.067 18.6534 294.383 8.46341C303.7 -1.72659 319.513 -2.43324 329.703 6.88342L475.537 140.217Z" fill="#FE5E00"/>
</svg>
