<svg width="650" height="650" viewBox="0 0 650 650" fill="none" xmlns="http://www.w3.org/2000/svg">
<path d="M554.719 187.952C545.582 142.269 509.036 105.723 462.048 95.2811C450.301 40.4619 402.008 0 344.578 0H120.08C53.5141 0 0 53.5141 0 120.08V344.578C0 402.008 40.4619 450.301 95.2811 462.048C104.418 507.731 140.964 544.277 187.952 554.719C199.699 609.538 247.992 650 305.422 650H529.92C596.486 650 650 596.486 650 529.92V305.422C650 247.992 609.538 199.699 554.719 187.952ZM595.181 305.422V529.92C595.181 532.53 595.181 535.141 595.181 537.751C579.518 501.205 552.108 469.88 516.868 448.996C524.699 433.333 528.615 416.365 528.615 398.092C528.615 336.747 479.016 287.149 417.671 287.149C356.325 287.149 306.727 336.747 306.727 398.092C306.727 416.365 310.643 433.333 318.474 448.996C283.233 469.88 257.129 501.205 240.161 537.751C240.161 535.141 240.161 532.53 240.161 529.92V305.422C240.161 268.876 268.876 240.161 305.422 240.161H529.92C566.466 240.161 595.181 268.876 595.181 305.422ZM360.241 399.398C360.241 368.072 385.04 343.273 416.365 343.273C447.691 343.273 472.49 368.072 472.49 399.398C472.49 430.723 447.691 455.522 416.365 455.522C386.345 455.522 360.241 430.723 360.241 399.398ZM54.8193 344.578V120.08C54.8193 83.5342 83.5341 54.8193 120.08 54.8193H344.578C370.683 54.8193 392.871 70.4819 403.313 92.6707H212.751C146.185 92.6707 92.6707 146.185 92.6707 212.751V404.619C70.4819 394.177 54.8193 370.683 54.8193 344.578ZM147.49 437.249V212.751C147.49 176.205 176.205 147.49 212.751 147.49H437.249C463.353 147.49 485.542 163.153 495.984 185.341H305.422C238.855 185.341 185.341 238.855 185.341 305.422V497.289C163.153 486.847 147.49 463.353 147.49 437.249ZM305.422 595.181C296.285 595.181 288.454 593.876 280.623 589.96C280.623 588.655 281.928 587.349 281.928 586.044C291.064 545.582 318.474 510.341 356.325 490.763C374.598 502.51 395.482 509.036 417.671 509.036C439.859 509.036 462.048 502.51 479.016 490.763C516.868 510.341 544.277 544.277 553.414 586.044C553.414 587.349 554.719 588.655 554.719 589.96C546.888 592.57 539.056 595.181 529.92 595.181H305.422Z" fill="black"/>
</svg>
