<svg width="753" height="753" viewBox="0 0 753 753" fill="none" xmlns="http://www.w3.org/2000/svg">
<path fill-rule="evenodd" clip-rule="evenodd" d="M55.1373 55.1373C-4.48823e-06 110.274 0 199.016 0 376.5C0 553.982 -4.48823e-06 642.727 55.1373 697.862C110.274 753 199.016 753 376.5 753C553.982 753 642.727 753 697.862 697.862C753 642.727 753 553.982 753 376.5C753 199.016 753 110.274 697.862 55.1373C642.727 -4.48823e-06 553.982 0 376.5 0C199.016 0 110.274 -4.48823e-06 55.1373 55.1373ZM197.663 376.5C197.663 277.731 277.731 197.663 376.5 197.663C475.271 197.663 555.338 277.731 555.338 376.5C555.338 475.271 475.271 555.338 376.5 555.338C277.731 555.338 197.663 475.271 197.663 376.5ZM254.138 376.5C254.138 308.922 308.922 254.138 376.5 254.138C444.078 254.138 498.863 308.922 498.863 376.5C498.863 444.078 444.078 498.863 376.5 498.863C308.922 498.863 254.138 444.078 254.138 376.5Z" fill="black"/>
</svg>
