<svg width="634" height="634" viewBox="0 0 634 634" fill="none" xmlns="http://www.w3.org/2000/svg">
<path d="M317 617C277.603 617 238.593 609.24 202.195 594.163C165.797 579.087 132.726 556.99 104.868 529.133C77.0103 501.273 54.9127 468.203 39.836 431.807C24.7597 395.407 17 356.397 17 317C17 277.603 24.7597 238.593 39.836 202.195C54.9127 165.797 77.0103 132.726 104.868 104.868C132.726 77.0103 165.797 54.9127 202.195 39.836C238.593 24.7597 277.603 17 317 17C356.397 17 395.407 24.7597 431.807 39.836C468.203 54.9127 501.273 77.0103 529.133 104.868C556.99 132.726 579.087 165.797 594.163 202.195C609.24 238.593 617 277.603 617 317C617 356.397 609.24 395.407 594.163 431.807C579.087 468.203 556.99 501.273 529.133 529.133C501.273 556.99 468.203 579.087 431.803 594.163C395.407 609.24 356.397 617 317 617Z" stroke="black" stroke-width="33.3333" stroke-linecap="round"/>
<path d="M172 171L463 462" stroke="black" stroke-width="33.3333" stroke-linecap="round"/>
<path d="M463 171L172 462" stroke="black" stroke-width="33.3333" stroke-linecap="round"/>
</svg>
