<svg width="800" height="800" viewBox="0 0 800 800" fill="none" xmlns="http://www.w3.org/2000/svg">
<path d="M266.667 400H266.966M399.7 400H400M533.033 400H533.333" stroke="#999999" stroke-width="66.6667" stroke-linecap="round" stroke-linejoin="round"/>
<path d="M400 733.333C584.093 733.333 733.333 584.093 733.333 400C733.333 215.905 584.093 66.6667 400 66.6667C215.905 66.6667 66.6665 215.905 66.6665 400C66.6665 453.323 79.1872 503.72 101.448 548.417C107.364 560.293 109.334 573.87 105.904 586.687L86.0502 660.89C77.4315 693.1 106.9 722.567 139.111 713.95L213.313 694.097C226.131 690.667 239.707 692.637 251.584 698.55C296.279 720.813 346.676 733.333 400 733.333Z" stroke="#999999" stroke-width="50"/>
</svg>
