<svg width="800" height="800" viewBox="0 0 800 800" fill="none" xmlns="http://www.w3.org/2000/svg">
<path d="M566.666 111.261C517.636 82.8991 460.713 66.6667 399.999 66.6667C215.904 66.6667 66.666 215.905 66.666 400C66.666 453.323 79.1867 503.72 101.448 548.417C107.364 560.293 109.333 573.87 105.903 586.687L86.0497 660.89C77.431 693.1 106.9 722.567 139.111 713.95L213.312 694.097C226.13 690.667 239.706 692.637 251.584 698.55C296.278 720.813 346.676 733.333 399.999 733.333C584.093 733.333 733.333 584.093 733.333 400C733.333 339.287 717.099 282.362 688.739 233.333" stroke="black" stroke-width="50" stroke-linecap="round"/>
<path d="M266.666 400H266.966M399.699 400H399.999M533.033 400H533.333" stroke="black" stroke-width="66.6667" stroke-linecap="round" stroke-linejoin="round"/>
</svg>
