<?xml version="1.0" standalone="no"?>
<!DOCTYPE svg PUBLIC "-//W3C//DTD SVG 20010904//EN"
 "http://www.w3.org/TR/2001/REC-SVG-20010904/DTD/svg10.dtd">
<svg version="1.0" xmlns="http://www.w3.org/2000/svg"
 width="512.000000pt" height="512.000000pt" viewBox="0 0 512.000000 512.000000"
 preserveAspectRatio="xMidYMid meet">

<g transform="translate(0.000000,512.000000) scale(0.100000,-0.100000)"
fill="#000000" stroke="none">
<path d="M1130 4843 c-422 -70 -756 -387 -841 -797 -18 -87 -19 -159 -19
-1486 0 -1322 1 -1400 19 -1485 83 -402 401 -713 809 -791 61 -12 312 -14
1465 -14 1324 0 1396 1 1483 19 378 78 671 359 777 746 l22 80 0 1445 0 1445
-22 80 c-106 387 -399 668 -777 746 -87 18 -156 19 -1491 18 -770 -1 -1411 -4
-1425 -6z m2870 -329 c196 -46 372 -187 460 -369 74 -152 70 -54 70 -1585 0
-1531 4 -1433 -70 -1585 -66 -137 -178 -249 -315 -315 -152 -74 -54 -70 -1585
-70 -1530 0 -1433 -4 -1585 70 -135 65 -249 179 -315 315 -74 152 -70 54 -70
1585 0 1531 -4 1433 70 1585 87 179 264 323 455 369 93 22 2790 23 2885 0z"/>
<path d="M2764 3479 c-73 -21 -73 -21 -359 -879 -266 -798 -267 -802 -255
-846 15 -53 74 -110 123 -119 19 -4 52 -2 74 4 83 23 77 7 367 880 261 782
267 801 256 843 -14 50 -51 95 -97 114 -36 16 -63 16 -109 3z"/>
<path d="M1725 3216 c-16 -8 -157 -141 -312 -297 -243 -245 -282 -289 -288
-321 -17 -89 -16 -90 288 -397 155 -156 296 -289 314 -297 74 -32 152 -7 200
65 25 37 30 91 13 138 -6 15 -106 124 -223 241 l-212 212 212 213 c117 116
217 225 223 240 27 73 0 147 -69 194 -39 26 -99 30 -146 9z"/>
<path d="M3249 3207 c-69 -47 -96 -121 -69 -194 6 -15 106 -124 223 -240 l212
-213 -212 -212 c-117 -117 -217 -226 -223 -241 -17 -47 -12 -101 13 -138 48
-72 126 -97 200 -65 18 8 159 141 314 297 243 245 282 289 288 322 17 88 16
89 -288 396 -155 156 -296 289 -314 297 -48 21 -105 17 -144 -9z"/>
</g>
</svg>
