<svg width="717" height="717" viewBox="0 0 717 717" fill="none" xmlns="http://www.w3.org/2000/svg">
<path d="M137.885 717C101.315 717 66.2438 702.473 40.3855 676.615C14.5271 650.756 0 615.685 0 579.115L0 242.934C0 217.511 10.0992 193.13 28.076 175.153C46.0527 157.176 70.4344 147.077 95.8574 147.077H147.077V101.115C147.116 74.3099 157.782 48.6134 176.736 29.659C195.69 10.7046 221.387 0.038905 248.192 0L615.885 0C642.693 0.0291979 668.395 10.6918 687.352 29.6483C706.308 48.6047 716.971 74.3069 717 101.115V468.808C716.981 495.619 706.321 521.327 687.362 540.286C668.404 559.244 642.696 569.904 615.885 569.923H569.923V621.143C569.923 633.734 567.442 646.202 562.623 657.834C557.803 669.466 550.739 680.035 541.834 688.937C532.929 697.839 522.357 704.899 510.723 709.714C499.089 714.529 486.62 717.005 474.029 717H137.885ZM55.1538 242.934V579.115C55.1538 601.057 63.8701 622.1 79.3851 637.615C94.9002 653.13 115.943 661.846 137.885 661.846H474.029C484.828 661.846 495.184 657.559 502.824 649.927C510.463 642.294 514.759 631.941 514.769 621.143V569.923H248.192C221.384 569.894 195.682 559.231 176.725 540.275C157.769 521.318 147.106 495.616 147.077 468.808V202.231H95.8574C85.0621 202.231 74.709 206.519 67.0756 214.153C59.4422 221.786 55.1538 232.139 55.1538 242.934ZM202.231 101.115V468.808C202.25 480.991 207.099 492.671 215.714 501.286C224.329 509.901 236.009 514.75 248.192 514.769H615.885C628.071 514.759 639.756 509.914 648.374 501.297C656.991 492.679 661.836 480.994 661.846 468.808V101.115C661.836 88.9286 656.991 77.2438 648.374 68.6264C639.756 60.0091 628.071 55.1636 615.885 55.1538H248.192C236.009 55.1733 224.329 60.0219 215.714 68.6371C207.099 77.2524 202.25 88.9316 202.231 101.115ZM340.115 386.077C332.802 386.077 325.787 383.171 320.616 378C315.444 372.828 312.538 365.814 312.538 358.5C312.538 351.186 315.444 344.172 320.616 339C325.787 333.829 332.802 330.923 340.115 330.923H523.962C531.275 330.923 538.29 333.829 543.461 339C548.633 344.172 551.538 351.186 551.538 358.5C551.538 365.814 548.633 372.828 543.461 378C538.29 383.171 531.275 386.077 523.962 386.077H340.115Z" fill="black"/>
<path d="M523.961 183.846L340.115 183.846C332.801 183.846 325.787 186.752 320.615 191.923C315.444 197.095 312.538 204.109 312.538 211.423C312.538 218.737 315.444 225.751 320.615 230.923C325.787 236.095 332.801 239 340.115 239L523.961 239C531.275 239 538.289 236.095 543.461 230.923C548.633 225.751 551.538 218.737 551.538 211.423C551.538 204.109 548.633 197.095 543.461 191.923C538.289 186.752 531.275 183.846 523.961 183.846Z" fill="black"/>
</svg>
