<svg width="646" height="717" viewBox="0 0 646 717" fill="none" xmlns="http://www.w3.org/2000/svg">
<path d="M586.12 59.6779L586.121 59.6786C601.702 75.26 610.895 96.505 615.773 132.782C620.747 169.779 620.8 218.494 620.8 286.8V430.2C620.8 498.505 620.747 547.221 615.773 584.218C610.895 620.495 601.702 641.74 586.121 657.32L586.12 657.321C570.54 672.902 549.296 682.095 513.018 686.973C476.021 691.947 427.306 692 359 692H287.3C218.994 692 170.279 691.947 133.282 686.973C97.005 682.095 75.76 672.902 60.1786 657.321L60.1779 657.32C44.5974 641.74 35.4046 620.496 30.5272 584.218C25.5531 547.221 25.5 498.505 25.5 430.2V286.8C25.5 218.494 25.5531 169.779 30.5272 132.782C35.4045 96.5048 44.5973 75.2598 60.1785 59.6784C75.7598 44.0973 97.0048 34.9046 133.282 30.0272C170.279 25.0531 218.994 25 287.3 25H359C427.306 25 476.021 25.0531 513.018 30.0272C549.296 34.9046 570.54 44.0974 586.12 59.6779Z" stroke="black" stroke-width="50"/>
<path d="M179.75 358.5H466.55" stroke="black" stroke-width="50" stroke-linecap="round"/>
<path d="M179.75 215.1H466.55" stroke="black" stroke-width="50" stroke-linecap="round"/>
<path d="M179.75 501.9H359" stroke="black" stroke-width="50" stroke-linecap="round"/>
</svg>
