<svg width="734" height="667" viewBox="0 0 734 667" fill="none" xmlns="http://www.w3.org/2000/svg">
<path d="M667.273 571.714V95.2857C667.273 42.6689 624.605 0 571.948 0H95.3247C42.6673 0 0 42.6689 0 95.2857V571.714C0 624.312 42.6673 667 95.3247 667H571.948C624.605 667 667.273 624.35 667.273 571.714ZM138.221 119.107H329.595C345.38 119.107 358.192 131.894 358.192 147.693C358.192 163.491 345.38 176.279 329.595 176.279H138.221C122.435 176.279 109.623 163.491 109.623 147.693C109.623 131.894 122.435 119.107 138.221 119.107ZM138.221 242.979H328.87C344.656 242.979 357.468 255.766 357.468 271.564C357.468 287.363 344.656 300.15 328.87 300.15H138.221C122.435 300.15 109.623 287.363 109.623 271.564C109.623 255.766 122.435 242.979 138.221 242.979ZM529.052 547.893H138.221C122.435 547.893 109.623 535.086 109.623 519.307C109.623 503.49 122.435 490.721 138.221 490.721H529.052C544.838 490.721 557.649 503.49 557.649 519.307C557.649 535.086 544.838 547.893 529.052 547.893ZM529.052 424.021H138.221C122.435 424.021 109.623 411.215 109.623 395.436C109.623 379.618 122.435 366.85 138.221 366.85H529.052C544.838 366.85 557.649 379.618 557.649 395.436C557.649 411.215 544.838 424.021 529.052 424.021ZM597.438 190.362L504.039 283.761C499.673 288.144 493.934 290.336 488.177 290.336C482.438 290.336 476.681 288.144 472.315 283.78L414.453 226.056C405.702 217.309 405.664 203.092 414.453 194.307C423.223 185.54 437.426 185.54 446.177 194.288L488.139 236.156L565.676 158.613C574.446 149.846 588.649 149.846 597.438 158.613C606.208 167.379 606.208 181.557 597.438 190.362ZM734 161.3V582.729C734 629.248 696.271 667 649.676 667H602.147C654.804 667 697.472 624.35 697.472 571.714V95.2857C697.472 94.047 697.128 92.8845 697.09 91.6458C719.358 106.796 734 132.333 734 161.3Z" fill="white"/>
</svg>
