<svg width="650" height="651" viewBox="0 0 650 651" fill="none" xmlns="http://www.w3.org/2000/svg">
<path d="M343.45 475.203C338.713 480.383 332.02 483.333 325 483.333C317.98 483.333 311.287 480.383 306.55 475.203L173.216 329.37C163.899 319.18 164.607 303.367 174.797 294.05C184.988 284.733 200.801 285.44 210.117 295.63L300 393.94V25C300 11.193 311.193 0 325 0C338.807 0 350 11.193 350 25V393.94L439.883 295.63C449.2 285.44 465.013 284.733 475.203 294.05C485.393 303.367 486.1 319.18 476.783 329.37L343.45 475.203Z" fill="#FE5E00"/>
<path d="M50 425.333C50 411.527 38.8073 400.333 25 400.333C11.193 400.333 1.74651e-05 411.527 1.74651e-05 425.333V427.163C-0.000649202 472.75 -0.00131826 509.493 3.88401 538.393C7.91801 568.397 16.5477 593.657 36.6117 613.72C56.6757 633.787 81.938 642.417 111.942 646.45C140.841 650.333 177.585 650.333 223.171 650.333H426.83C472.417 650.333 509.16 650.333 538.06 646.45C568.063 642.417 593.323 633.787 613.39 613.72C633.453 593.657 642.083 568.397 646.117 538.393C650 509.493 650 472.75 650 427.163V425.333C650 411.527 638.807 400.333 625 400.333C611.193 400.333 600 411.527 600 425.333C600 473.18 599.947 506.55 596.563 531.73C593.273 556.19 587.26 569.14 578.033 578.367C568.807 587.593 555.857 593.607 531.397 596.897C506.217 600.28 472.847 600.333 425 600.333H225C177.153 600.333 143.782 600.28 118.604 596.897C94.145 593.607 81.1923 587.593 71.967 578.367C62.7417 569.14 56.7267 556.19 53.4383 531.73C50.053 506.55 50 473.18 50 425.333Z" fill="#FE5E00"/>
</svg>
