<svg width="800" height="800" viewBox="0 0 800 800" fill="none" xmlns="http://www.w3.org/2000/svg">
<path d="M200 483.333H466.667" stroke="white" stroke-width="50" stroke-linecap="round"/>
<path d="M200 600H383.333" stroke="white" stroke-width="50" stroke-linecap="round"/>
<path d="M433.333 83.333V166.666C433.333 245.234 433.333 284.517 457.74 308.925C482.15 333.333 521.433 333.333 600 333.333H733.333" stroke="white" stroke-width="50"/>
<path d="M91.667 333.333C91.667 319.526 80.474 308.333 66.667 308.333C52.86 308.333 41.667 319.526 41.667 333.333H91.667ZM708.334 466.667C708.334 480.473 719.527 491.667 733.334 491.667C747.14 491.667 758.334 480.473 758.334 466.667H708.334ZM45.17 197.553C43.8187 211.294 53.862 223.528 67.6027 224.88C81.3437 226.232 93.5783 216.188 94.93 202.447L45.17 197.553ZM754.83 602.447C756.184 588.707 746.137 576.47 732.397 575.12C718.657 573.77 706.424 583.813 705.07 597.553L754.83 602.447ZM466.667 708.333H333.334V758.333H466.667V708.333ZM91.667 466.667V333.333H41.667V466.667H91.667ZM708.334 452.097V466.667H758.334V452.097H708.334ZM496.374 153.704L628.334 272.467L661.78 235.302L529.824 116.539L496.374 153.704ZM758.334 452.097C758.334 395.817 758.837 360.183 744.637 328.299L698.964 348.64C707.83 368.55 708.334 391.4 708.334 452.097H758.334ZM628.334 272.467C673.447 313.07 690.097 328.733 698.964 348.64L744.637 328.299C730.437 296.414 703.614 272.951 661.78 235.302L628.334 272.467ZM334.327 91.6667C387.054 91.6667 406.95 92.0527 424.684 98.8577L442.597 52.1767C414.204 41.2807 383.267 41.6667 334.327 41.6667V91.6667ZM529.824 116.539C493.624 83.9594 470.99 63.0714 442.597 52.1767L424.684 98.8577C442.424 105.664 457.384 118.612 496.374 153.704L529.824 116.539ZM333.334 708.333C269.773 708.333 224.617 708.28 190.362 703.673C156.826 699.167 137.504 690.71 123.397 676.603L88.0417 711.96C112.987 736.903 144.619 747.973 183.7 753.23C222.061 758.387 271.186 758.333 333.334 758.333V708.333ZM41.667 466.667C41.667 528.813 41.614 577.94 46.7713 616.3C52.0257 655.38 63.0963 687.013 88.0417 711.96L123.397 676.603C109.29 662.497 100.834 643.173 96.3257 609.64C91.72 575.383 91.667 530.227 91.667 466.667H41.667ZM466.667 758.333C528.814 758.333 577.94 758.387 616.3 753.23C655.38 747.973 687.014 736.903 711.96 711.96L676.604 676.603C662.497 690.71 643.174 699.167 609.64 703.673C575.384 708.28 530.227 708.333 466.667 708.333V758.333ZM334.327 41.6667C271.846 41.6667 222.481 41.6141 183.963 46.7691C144.744 52.0181 113.007 63.0767 88.0417 88.0414L123.397 123.397C137.485 109.309 156.866 100.842 190.595 96.3274C225.025 91.7194 270.437 91.6667 334.327 91.6667V41.6667ZM94.93 202.447C98.9773 161.302 107.682 139.112 123.397 123.397L88.0417 88.0414C60.2113 115.872 49.6483 152.024 45.17 197.553L94.93 202.447ZM705.07 597.553C701.024 638.697 692.317 660.887 676.604 676.603L711.96 711.96C739.79 684.127 750.354 647.977 754.83 602.447L705.07 597.553Z" fill="white"/>
</svg>
