<svg width="126" height="99" viewBox="0 0 126 99" fill="none" xmlns="http://www.w3.org/2000/svg">
<path fill-rule="evenodd" clip-rule="evenodd" d="M115.043 99H10.9565C8.05067 99 5.26384 97.8411 3.20909 95.7782C1.15434 93.7153 0 90.9174 0 88V11C0 8.08262 1.15434 5.28473 3.20909 3.22183C5.26384 1.15892 8.05067 0 10.9565 0H115.043C117.949 0 120.736 1.15892 122.791 3.22183C124.846 5.28473 126 8.08262 126 11V88C126 90.9174 124.846 93.7153 122.791 95.7782C120.736 97.8411 117.949 99 115.043 99ZM30.1304 5.5H10.9565C9.5036 5.5 8.11018 6.07946 7.08281 7.11091C6.05543 8.14236 5.47826 9.54131 5.47826 11V16.5H30.1304V5.5ZM60.2609 5.5H35.6087V16.5H60.2609V5.5ZM90.3913 5.5H65.7391V16.5H90.3913V5.5ZM120.522 11C120.522 9.54131 119.945 8.14236 118.917 7.11091C117.89 6.07946 116.496 5.5 115.043 5.5H95.8696V16.5H120.522V11ZM120.522 22H5.47826V77H120.522V22ZM120.522 82.5H95.8696V93.5H90.3913V82.5H65.7391V93.5H60.2609V82.5H35.6087V93.5H30.1304V82.5H5.47826V88C5.47826 89.4587 6.05543 90.8576 7.08281 91.8891C8.11018 92.9205 9.5036 93.5 10.9565 93.5H115.043C116.496 93.5 117.89 92.9205 118.917 91.8891C119.945 90.8576 120.522 88 120.522 88V82.5ZM56.4836 65.3538C56.008 65.7599 55.4069 65.9883 54.7826 66C54.0561 66 53.3594 65.7103 52.8457 65.1945C52.3321 64.6788 52.0435 63.9793 52.0435 63.25V35.75C52.0435 35.0207 52.3321 34.3212 52.8457 33.8055C53.3594 33.2897 54.0561 33 54.7826 33C55.3412 33.0173 55.8804 33.2097 56.3247 33.55L77.6105 46.948C78.0769 47.1038 78.4914 47.386 78.8081 47.7633C79.1249 48.1407 79.3317 48.5986 79.4056 49.0865C79.4796 49.5743 79.4178 50.0733 79.2272 50.5281C79.0366 50.983 78.7245 51.3762 78.3254 51.6643L56.4836 65.3538Z" fill="white"/>
</svg>
