<svg width="717" height="717" viewBox="0 0 717 717" fill="none" xmlns="http://www.w3.org/2000/svg">
<path d="M391.667 225.001C391.667 206.592 376.743 191.668 358.333 191.668C339.923 191.668 325 206.592 325 225.001C325 243.411 339.923 258.335 358.333 258.335C376.743 258.335 391.667 243.411 391.667 225.001Z" fill="black"/>
<path d="M358.333 550C372.14 550 383.333 538.807 383.333 525V325C383.333 311.193 372.14 300 358.333 300C344.526 300 333.333 311.193 333.333 325V525C333.333 538.807 344.526 550 358.333 550Z" fill="black"/>
<path fill-rule="evenodd" clip-rule="evenodd" d="M360.247 4.83953e-06H356.42C279.475 -0.000328494 219.173 -0.000663102 172.124 6.325C123.966 12.7997 85.965 26.311 56.138 56.138C26.311 85.965 12.7997 123.966 6.325 172.124C-0.000663102 219.173 -0.000328494 279.474 4.83953e-06 356.42V360.247C-0.000328494 437.193 -0.000663102 497.493 6.325 544.543C12.7997 592.7 26.311 630.703 56.138 660.53C85.965 690.357 123.966 703.867 172.124 710.343C219.173 716.667 279.474 716.667 356.42 716.667H360.247C437.193 716.667 497.493 716.667 544.543 710.343C592.7 703.867 630.703 690.357 660.53 660.53C690.357 630.703 703.867 592.7 710.343 544.543C716.667 497.493 716.667 437.193 716.667 360.247V356.42C716.667 279.474 716.667 219.173 710.343 172.124C703.867 123.966 690.357 85.965 660.53 56.138C630.703 26.311 592.7 12.7997 544.543 6.325C497.493 -0.000663102 437.193 -0.000328494 360.247 4.83953e-06ZM91.4933 91.4933C110.482 72.5047 136.172 61.6083 178.786 55.879C222.119 50.053 279.059 50 358.333 50C437.607 50 494.547 50.053 537.88 55.879C580.493 61.6083 606.183 72.5047 625.173 91.4933C644.163 110.482 655.06 136.172 660.787 178.786C666.613 222.119 666.667 279.059 666.667 358.333C666.667 437.607 666.613 494.547 660.787 537.88C655.06 580.493 644.163 606.183 625.173 625.173C606.183 644.163 580.493 655.06 537.88 660.787C494.547 666.613 437.607 666.667 358.333 666.667C279.059 666.667 222.119 666.613 178.786 660.787C136.172 655.06 110.482 644.163 91.4933 625.173C72.5047 606.183 61.6083 580.493 55.879 537.88C50.053 494.547 50 437.607 50 358.333C50 279.059 50.053 222.119 55.879 178.786C61.6083 136.172 72.5047 110.482 91.4933 91.4933Z" fill="black"/>
</svg>
