<svg class="h-[24px] w-[24px] p-[4px]" viewBox="0 0 17 16" fill="none" xmlns="http://www.w3.org/2000/svg"><path d="M3.26098 0.419597C2.73415 0.624517 2.28862 0.897743 1.84309 1.34336C1.39756 1.78573 1.12439 2.2346 0.919512 2.75828C0.721138 3.2657 0.587805 3.84794 0.54878 4.70014C0.509756 5.55235 0.5 5.82557 0.5 7.99837C0.5 10.1712 0.509756 10.4444 0.54878 11.2966C0.587805 12.1488 0.72439 12.731 0.919512 13.2385C1.12439 13.7654 1.39756 14.211 1.84309 14.6566C2.28862 15.1023 2.73415 15.3755 3.26098 15.5804C3.76829 15.7788 4.35041 15.9122 5.20244 15.9512C6.05447 15.9902 6.32764 16 8.5 16C10.6724 16 10.9455 15.9902 11.7976 15.9512C12.6496 15.9122 13.2317 15.7756 13.739 15.5804C14.2659 15.3755 14.7114 15.1023 15.1569 14.6566C15.6024 14.211 15.8756 13.7654 16.0805 13.2385C16.2789 12.731 16.4122 12.1488 16.4512 11.2966C16.4902 10.4444 16.5 10.1712 16.5 7.99837C16.5 5.82557 16.4902 5.55235 16.4512 4.70014C16.4122 3.84794 16.2756 3.2657 16.0805 2.75828C15.8756 2.2346 15.6024 1.78573 15.1602 1.34336C14.7146 0.897743 14.2691 0.624517 13.7423 0.419597C13.235 0.221183 12.6528 0.0878227 11.8008 0.0487904C10.9488 0.00975808 10.6756 0 8.50325 0C6.33089 0 6.05772 0.00975808 5.20569 0.0487904C4.35041 0.08457 3.76829 0.221183 3.26098 0.419597ZM11.7325 1.48648C12.513 1.52226 12.9358 1.65237 13.2187 1.76296C13.5927 1.90933 13.8593 2.08172 14.139 2.36146C14.4187 2.64119 14.5911 2.90791 14.7374 3.28197C14.848 3.56495 14.978 3.9878 15.0138 4.76845C15.0528 5.6109 15.0593 5.86461 15.0593 8.00163C15.0593 10.1386 15.0496 10.3924 15.0138 11.2348C14.978 12.0155 14.848 12.4383 14.7374 12.7213C14.5911 13.0953 14.4187 13.3621 14.139 13.6418C13.8593 13.9215 13.5927 14.0939 13.2187 14.2403C12.9358 14.3509 12.513 14.481 11.7325 14.5168C10.8902 14.5558 10.6366 14.5623 8.5 14.5623C6.36342 14.5623 6.10976 14.5526 5.26748 14.5168C4.48699 14.481 4.06423 14.3509 3.7813 14.2403C3.40732 14.0939 3.14065 13.9215 2.86098 13.6418C2.5813 13.3621 2.40894 13.0953 2.2626 12.7213C2.15203 12.4383 2.02195 12.0155 1.98618 11.2348C1.94715 10.3924 1.94065 10.1386 1.94065 8.00163C1.94065 5.86461 1.95041 5.6109 1.98618 4.76845C2.02195 3.9878 2.15203 3.56495 2.2626 3.28197C2.40894 2.90791 2.5813 2.64119 2.86098 2.36146C3.14065 2.08172 3.40732 1.90933 3.7813 1.76296C4.06423 1.65237 4.48699 1.52226 5.26748 1.48648C6.10976 1.44745 6.36342 1.44094 8.5 1.44094C10.6366 1.44094 10.8902 1.44745 11.7325 1.48648Z" fill="url(#paint0_radial_9393_8569)"/><path d="M4.39251 8.00105C4.39251 10.2714 6.23316 12.1092 8.49982 12.1092C10.7665 12.1092 12.6071 10.2682 12.6071 8.00105C12.6071 5.73393 10.7697 3.8929 8.49982 3.8929C6.2299 3.8929 4.39251 5.73067 4.39251 8.00105ZM11.1665 8.00105C11.1665 9.47453 9.97299 10.6683 8.49982 10.6683C7.02665 10.6683 5.83316 9.47453 5.83316 8.00105C5.83316 6.52759 7.02665 5.33385 8.49982 5.33385C9.97299 5.33385 11.1665 6.52759 11.1665 8.00105Z" fill="url(#paint1_radial_9393_8569)"/><path d="M12.7745 4.69057C13.3043 4.69057 13.7338 4.26097 13.7338 3.73103C13.7338 3.20109 13.3043 2.77148 12.7745 2.77148C12.2446 2.77148 11.8151 3.20109 11.8151 3.73103C11.8151 4.26097 12.2446 4.69057 12.7745 4.69057Z" fill="#654C9F"/><defs><radialGradient id="paint0_radial_9393_8569" cx="0" cy="0" r="1" gradientUnits="userSpaceOnUse" gradientTransform="translate(0.791121 14.5351) rotate(-3.0007) scale(23.1322 19.6661)"><stop stop-color="#FED576"/><stop offset="0.2634" stop-color="#F47133"/><stop offset="0.6091" stop-color="#BC3081"/><stop offset="1" stop-color="#4C63D2"/></radialGradient><radialGradient id="paint1_radial_9393_8569" cx="0" cy="0" r="1" gradientUnits="userSpaceOnUse" gradientTransform="translate(0.790187 14.5328) rotate(-3.00009) scale(23.1366 19.6659)"><stop stop-color="#FED576"/><stop offset="0.2634" stop-color="#F47133"/><stop offset="0.6091" stop-color="#BC3081"/><stop offset="1" stop-color="#4C63D2"/></radialGradient></defs></svg>