<svg width="1635" height="399" viewBox="0 0 1635 399" fill="none" xmlns="http://www.w3.org/2000/svg">
<path d="M212.743 4.21086C226.954 17.2145 253.67 42.5202 292.893 80.1277C300.088 87.021 306.06 92.7114 310.808 97.198C371.388 154.472 406.39 187.553 415.812 196.438C417.419 197.955 418.974 199.628 420.475 201.455C420.978 202.075 420.913 202.98 420.328 203.523L212.305 395.787C211.579 396.456 210.861 396.452 210.152 395.775C188.211 374.813 174.788 361.805 156.838 345.187C101.83 294.283 51.5166 248.05 5.89735 206.482C5.43233 206.058 4.54313 205.026 3.22975 203.386C2.96052 203.051 2.92793 202.697 3.13188 202.321C3.37659 201.889 4.20468 201.02 5.61593 199.715C56.9951 152.033 87.6863 123.27 97.6991 113.435C122.735 88.8228 151.752 61.0428 184.752 30.0924C194.55 20.8985 203.507 12.2796 211.624 4.23628C211.933 3.931 212.427 3.92019 212.75 4.21174L212.743 4.21086ZM211.69 237.078C211.756 236.977 211.871 236.919 211.991 236.924C212.111 236.929 212.22 236.997 212.278 237.103L254.348 318.074C254.466 318.297 254.705 318.429 254.957 318.411C255.209 318.392 255.426 318.226 255.51 317.988C256.31 315.614 257.342 313.22 258.606 310.805C264.137 300.274 269.15 290.093 273.645 280.263C285.302 254.753 301.072 218.199 320.952 170.597C321.849 168.443 327.07 156.333 336.615 134.266C336.778 133.899 336.851 133.646 336.835 133.508C336.77 132.928 336.554 132.867 336.186 133.324C324.819 147.69 313.304 162.863 302.266 175.847C286.913 193.916 274.334 208.743 264.528 220.327C258.45 227.514 254.029 232.605 251.263 235.599C251.072 235.805 250.798 235.914 250.518 235.895C250.238 235.876 249.981 235.731 249.819 235.501C245.822 229.848 242.02 223.493 238.415 216.437C237.754 215.148 237.603 214.071 237.962 213.206C247.082 191.18 263.475 151.176 287.143 93.1868C288.268 90.4131 287.914 90.2093 286.078 92.575C278.573 102.218 270.236 112.35 261.066 122.971C243.829 142.933 230.78 158.327 221.921 169.152C215.411 177.106 199.503 194.6 174.198 221.635C174.035 221.807 173.867 221.913 173.696 221.954C173.451 222.019 173.211 221.978 172.974 221.831C172.646 221.628 172.521 221.21 172.68 220.852C175.348 214.918 177.404 209.13 180.022 203.635C191.354 179.953 202.326 155.424 212.939 130.042C215.999 122.716 219.254 115.231 222.705 107.587C227.517 96.9004 233.208 83.856 239.775 68.4542C239.783 68.4379 239.779 68.4175 239.762 68.3931C239.714 68.3115 239.64 68.2299 239.542 68.1484C239.483 68.0922 239.404 68.063 239.323 68.0676C239.242 68.0723 239.166 68.1103 239.114 68.1728C235.92 72.211 231.405 78.8797 227.905 83.1627C212.992 101.379 198.231 118.605 183.62 134.84C169.426 150.609 154.795 166.521 139.727 182.575C139.521 182.795 139.221 182.9 138.923 182.856C138.625 182.812 138.368 182.625 138.234 182.355L114.165 133.947C113.479 132.584 113.141 132.666 113.149 134.191L113.479 275.379C113.479 276.407 113.826 276.537 114.519 275.77L143.251 243.918C143.407 243.745 143.642 243.667 143.871 243.712C144.099 243.757 144.287 243.919 144.365 244.138C151.723 264.321 158.417 284.018 164.445 303.231C164.617 303.802 165.073 305.683 165.816 308.872C165.856 309.041 165.994 309.169 166.166 309.196C166.338 309.223 166.509 309.143 166.599 308.994L211.69 237.078Z" fill="#B54CDB" stroke="#B54CDB" stroke-width="4.8" stroke-miterlimit="10"/>
<path d="M574.533 126.371C586.106 126.371 596.064 128.29 604.409 132.127C612.815 135.904 619.85 141.172 625.514 147.933V129.661H656.944V279.497H625.514V261.773C619.85 268.534 612.814 273.833 604.409 277.67C596.064 281.508 586.106 283.427 574.533 283.427C560.768 283.427 548.281 280.077 537.074 273.376C525.866 266.737 516.913 257.54 510.212 245.784C503.573 234.029 500.254 220.385 500.254 204.853C500.254 189.383 503.573 175.769 510.212 164.014C516.912 152.258 525.866 143.03 537.074 136.33C548.281 129.691 560.768 126.371 574.533 126.371ZM533.967 204.851C533.967 220.14 538.535 232.413 547.672 241.671C556.869 250.929 568.655 255.558 583.029 255.558C592.41 255.558 600.754 253.609 608.063 249.711C615.372 245.752 621.189 240.636 625.514 234.361V175.432C621.19 169.097 615.373 163.981 608.063 160.082C600.754 156.123 592.41 154.144 583.029 154.144C568.411 154.144 556.595 158.834 547.58 168.214C538.505 177.594 533.967 189.806 533.967 204.851ZM766.854 282.693C753.088 282.693 740.601 279.373 729.394 272.734C718.187 266.095 709.264 256.837 702.625 244.959C695.925 233.082 692.575 219.499 692.575 204.211C692.575 188.74 695.925 175.127 702.625 163.371C709.264 151.554 718.187 142.327 729.394 135.687C740.602 129.048 753.088 125.729 766.854 125.729C777.756 125.729 787.471 127.465 795.999 130.937C804.465 134.47 811.774 139.373 817.926 145.646V50.5344H849.264V279.494H817.926V262.775C811.774 268.866 804.465 273.708 795.999 277.301C787.471 280.895 777.756 282.693 766.854 282.693ZM726.288 204.213C726.288 219.257 730.826 231.47 739.901 240.85C748.915 250.23 760.732 254.92 775.351 254.92C784.731 254.92 793.075 252.971 800.384 249.072C807.693 245.113 813.541 239.966 817.926 233.632V174.793C813.541 168.459 807.694 163.343 800.384 159.444C793.076 155.485 784.731 153.505 775.351 153.505C760.976 153.505 749.19 158.104 739.993 167.302C730.856 176.438 726.288 188.742 726.288 204.213ZM945.47 284.704C928.903 284.704 915.259 280.349 904.539 271.639C893.88 262.929 887.667 250.595 885.901 234.636H910.112C914.072 253.152 925.401 262.411 944.1 262.411C953.297 262.411 960.393 260.462 965.388 256.563C970.443 252.665 972.971 247.335 972.971 240.575C972.971 233.57 970.504 228.332 965.57 224.86C960.637 221.327 951.957 218.495 939.531 216.363C922.355 213.074 909.99 208.049 902.437 201.288C894.884 194.527 891.108 184.264 891.108 170.498C891.108 160.936 893.575 152.713 898.509 145.83C903.443 138.948 910.052 133.679 918.335 130.024C926.619 126.309 935.755 124.451 945.744 124.451C963.225 124.451 976.534 128.38 985.671 136.237C994.807 144.033 1000.59 155.698 1003.03 171.229H979.184C978.27 163.555 975.134 157.159 969.774 152.043C964.474 146.927 957.561 144.368 949.034 144.368C940.75 144.368 934.111 146.348 929.116 150.307C924.061 154.205 921.533 159.413 921.533 165.93C921.533 172.081 924.061 176.772 929.116 180C934.111 183.289 942.272 185.908 953.602 187.857C972.362 190.903 985.458 196.354 992.888 204.211C1000.32 212.068 1004.04 222.545 1004.04 235.641C1004.04 250.685 998.797 262.623 988.32 271.455C977.844 280.287 963.56 284.704 945.47 284.704ZM1111.57 281.78H1084.16L1026.23 129.659H1059.58L1099.51 242.857L1128.29 162.366L1115.86 129.657H1147.57L1187.49 239.841L1226.14 129.657H1257.48L1199.28 281.779H1173.79L1142.36 199.641L1111.57 281.78ZM1348.75 126.371C1360.32 126.371 1370.31 128.289 1378.72 132.127C1387.12 135.903 1394.16 141.172 1399.82 147.933V129.66H1431.16V279.497H1399.82V261.772C1394.16 268.533 1387.12 273.832 1378.72 277.67C1370.31 281.507 1360.32 283.426 1348.75 283.426C1335.05 283.426 1322.56 280.076 1311.29 273.376C1300.09 266.736 1291.16 257.539 1284.52 245.784C1277.82 234.028 1274.47 220.385 1274.47 204.853C1274.47 189.382 1277.82 175.769 1284.52 164.013C1291.16 152.257 1300.09 143.03 1311.29 136.33C1322.56 129.69 1335.05 126.371 1348.75 126.371ZM1308.19 204.851C1308.19 220.139 1312.78 232.412 1321.98 241.67C1331.12 250.929 1342.87 255.558 1357.25 255.558C1366.63 255.558 1374.97 253.609 1382.28 249.71C1389.59 245.751 1395.44 240.635 1399.82 234.361V175.431C1395.44 169.097 1389.59 163.981 1382.28 160.082C1374.97 156.123 1366.63 154.143 1357.25 154.143C1342.63 154.143 1330.81 158.833 1321.8 168.214C1312.72 177.594 1308.19 189.806 1308.19 204.851ZM1560.72 282.692C1549.39 282.692 1539.46 280.804 1530.93 277.028C1522.47 273.19 1515.4 267.891 1509.74 261.13V349.753H1478.31V129.658H1509.74V147.291C1515.4 140.531 1522.47 135.262 1530.93 131.485C1539.46 127.648 1549.39 125.729 1560.72 125.729C1574.48 125.729 1586.97 129.049 1598.18 135.688C1609.39 142.327 1618.34 151.555 1625.04 163.371C1631.68 175.127 1635 188.74 1635 204.211C1635 219.5 1631.68 233.082 1625.04 244.96C1618.34 256.837 1609.39 266.095 1598.18 272.735C1586.97 279.374 1574.48 282.692 1560.72 282.692ZM1509.74 174.793V233.631C1514.06 239.966 1519.88 245.113 1527.19 249.072C1534.5 252.97 1542.84 254.919 1552.22 254.919C1566.84 254.919 1578.66 250.229 1587.67 240.849C1596.75 231.469 1601.29 219.257 1601.29 204.212C1601.29 188.741 1596.72 176.437 1587.58 167.301C1578.38 158.104 1566.6 153.505 1552.22 153.505C1542.84 153.505 1534.5 155.485 1527.19 159.444C1519.88 163.342 1514.06 168.458 1509.74 174.793Z" fill="#151515"/>
</svg>
