<svg width="300" height="100" viewBox="0 0 300 100" fill="none" xmlns="http://www.w3.org/2000/svg">
<g clip-path="url(#clip0_2_10)">
<path d="M31.3 40.8C23.2 40.8 4.1 40.2 4.1 40.2V52.8C6.7 52.6 10.2 52.4 14.5 52.1C18.8 51.8 22.8 51.6 26.3 51.6C27.1 51.6 27.8 51.9 28.4 52.4C28.9 52.9 29.2 53.6 29.2 54.5V57.8H12.4C8.7 57.8 5.7 58.9 3.4 61.2C1.1 63.3 0 66.3 0 70V73.7C0 77.4 1.1 80.4 3.4 82.7C5.7 85 8.6 86.1 12.4 86.1H15.3C17.2 86.1 19.5 85.7 22.2 84.9C24.9 84.1 27.6 82.9 30.1 81.2L30.9 85.3H43.7V53.1C43.7 49.4 42.6 46.4 40.3 44.1C38 41.9 35 40.8 31.3 40.8ZM29.2 72.9C25.5 74 22.2 74.5 19.3 74.5H17.2C16.4 74.5 15.7 74.2 15.1 73.7C14.6 73.2 14.3 72.5 14.3 71.6V70.8C14.3 70 14.6 69.3 15.1 68.7C15.6 68.2 16.3 67.9 17.2 67.9H29.1V72.9H29.2Z" fill="#1E1E1E"/>
<path d="M238.5 40.8C230.4 40.8 213.6 40.2 213.6 40.2L210.8 52.8C213.4 52.6 217.4 52.3 221.7 52C226 51.7 230 51.5 233.5 51.5C234.3 51.5 235 51.8 235.6 52.3C236.1 52.8 236.4 53.5 236.4 54.4V57.7H219.5C215.8 57.7 212.8 58.8 210.5 61.1C208.2 63.4 207.1 66.3 207.1 70.1V73.8C207.1 77.5 208.2 80.5 210.5 82.8C212.8 85.1 215.7 86.2 219.5 86.2H222.4C224.3 86.2 226.6 85.8 229.3 85C232 84.2 234.7 83 237.2 81.3L238 85.4H250.8V53.1C250.8 49.4 249.7 46.4 247.4 44.1C245.3 41.9 242.3 40.8 238.5 40.8ZM236.5 72.9C232.8 74 229.5 74.5 226.6 74.5H224.5C223.7 74.5 223 74.2 222.4 73.7C221.9 73.2 221.6 72.5 221.6 71.6V70.8C221.6 70 221.9 69.3 222.4 68.7C222.9 68.2 223.6 67.9 224.5 67.9H236.4V72.9H236.5Z" fill="#1E1E1E"/>
<path d="M129.6 57.3H114.8C114 57.3 113.3 57 112.7 56.5C112.2 56 111.9 55.3 111.9 54.4C111.9 53.6 112.2 52.9 112.7 52.3C113.2 51.8 113.9 51.5 114.8 51.5L138.5 52.7L135.7 40.1L109.8 40.8C106.1 40.8 103.1 41.9 100.8 44.2C98.5 46.5 97.4 49.4 97.4 53.2V56C97.4 59.7 98.5 62.7 100.8 65C103.1 67.3 106 68.4 109.8 68.4H127.5V71.3C127.5 72.1 127.2 72.8 126.7 73.4C126.2 73.9 125.5 74.2 124.6 74.2C118.2 74.2 97.8 71.6 97.8 71.6V85.3C97.8 85.3 119.8 85.3 129.5 85.3C133.2 85.3 136.2 84.2 138.5 81.9C140.8 79.6 141.9 76.7 141.9 72.9V69.6C141.9 65.9 140.8 62.9 138.5 60.6C136.3 58.4 133.3 57.3 129.6 57.3Z" fill="#1E1E1E"/>
<path d="M296.6 44.2C294.3 41.9 291.4 40.8 287.6 40.8H283.9C282 40.8 279.7 41.2 277 42C274.3 42.8 271.6 44 269.1 45.7L269.7 40.5H255.5V99.2H269.9V85.2H286.8C290.9 85.2 294.1 84 296.5 81.7C298.8 79.4 300 76.1 300 72V53.1C300 49.4 298.9 46.4 296.6 44.2ZM285.6 70.8C285.6 73 284.5 74.1 282.3 74.1H269.9V54.4C273.6 53.3 276.9 52.8 279.8 52.8H282.7C283.5 52.8 284.2 53.1 284.8 53.6C285.3 54.1 285.6 54.8 285.6 55.7V70.8Z" fill="#1E1E1E"/>
<path d="M221.5 25L208.1 0L187.9 19.8L196.5 21.1L190.5 70.8L182.7 26.8H166.5L159.6 71.5L154.4 39.3L139.9 39.7L150.2 85H157.1H170.3L174.7 49.1L178.9 85H199.5L212.9 23.4L221.5 25ZM208.8 18.3L195.7 76.9L201.8 17.3L198.1 16.7L206.8 8.1L212.6 18.9L208.8 18.3Z" fill="url(#paint0_linear_2_10)"/>
<path d="M77.8 41.6H61C56.9 41.6 53.7 42.8 51.3 45.1C49 47.4 47.8 50.7 47.8 54.8V73.7C47.8 77.4 48.9 80.4 51.2 82.7C53.5 85 56.4 86.1 60.2 86.1H63.9C65.8 86.1 68.1 85.7 70.8 84.9C73.5 84.1 76.2 82.9 78.7 81.2L79.5 85.3H92.3L92.6 69.2C87.5 70.5 82.3 71.7 76.9 72.8C73.6 73.7 70.6 74.2 68 74.2H65.1C64.3 74.2 63.6 73.9 63 73.4C62.5 72.9 62.2 72.2 62.2 71.3V56C62.2 53.8 63.3 52.7 65.5 52.7H77.9V68.1L92.7 64.7L93.4 26.9H75.3L77.8 41.6Z" fill="#1E1E1E"/>
</g>
<defs>
<linearGradient id="paint0_linear_2_10" x1="156" y1="85" x2="228.5" y2="19" gradientUnits="userSpaceOnUse">
<stop stop-color="#FC4A00"/>
<stop offset="1" stop-color="#962C00"/>
</linearGradient>
<clipPath id="clip0_2_10">
<rect width="300" height="99.3" fill="white"/>
</clipPath>
</defs>
</svg>
