<svg width="800" height="265" viewBox="0 0 800 265" fill="none" xmlns="http://www.w3.org/2000/svg">
<g clip-path="url(#clip0_532_32)">
<mask id="mask0_532_32" style="mask-type:luminance" maskUnits="userSpaceOnUse" x="0" y="0" width="800" height="265">
<path d="M800 0H0V264.8H800V0Z" fill="white"/>
</mask>
<g mask="url(#mask0_532_32)">
<path d="M83.4667 108.799C61.8667 108.799 10.9333 107.199 10.9333 107.199V140.799C17.8667 140.266 27.2 139.732 38.6667 138.932C50.1333 138.132 60.8 137.599 70.1333 137.599C72.2667 137.599 74.1333 138.399 75.7333 139.732C77.0667 141.066 77.8667 142.932 77.8667 145.332V154.132H33.0667C23.2 154.132 15.2 157.066 9.06667 163.199C2.93333 168.799 0 176.799 0 186.666V196.532C0 206.399 2.93333 214.399 9.06667 220.532C15.2 226.666 22.9333 229.599 33.0667 229.599H40.8C45.8667 229.599 52 228.532 59.2 226.399C66.4 224.266 73.6 221.066 80.2667 216.532L82.4 227.466H116.533V141.599C116.533 131.732 113.6 123.732 107.467 117.599C101.333 111.732 93.3333 108.799 83.4667 108.799ZM77.8667 194.399C68 197.332 59.2 198.666 51.4667 198.666H45.8667C43.7333 198.666 41.8667 197.866 40.2667 196.532C38.9333 195.199 38.1333 193.332 38.1333 190.932V188.799C38.1333 186.666 38.9333 184.799 40.2667 183.199C41.6 181.866 43.4667 181.066 45.8667 181.066H77.6V194.399H77.8667Z" fill="#1E1E1E"/>
<path d="M636 108.799C614.4 108.799 569.6 107.199 569.6 107.199L562.133 140.799C569.067 140.266 579.733 139.466 591.2 138.666C602.667 137.866 613.333 137.332 622.667 137.332C624.8 137.332 626.667 138.132 628.267 139.466C629.6 140.799 630.4 142.666 630.4 145.066V153.866H585.333C575.467 153.866 567.467 156.799 561.333 162.932C555.2 169.066 552.267 176.799 552.267 186.932V196.799C552.267 206.666 555.2 214.666 561.333 220.799C567.467 226.932 575.2 229.866 585.333 229.866H593.067C598.133 229.866 604.267 228.799 611.467 226.666C618.667 224.532 625.867 221.332 632.533 216.799L634.667 227.732H668.8V141.599C668.8 131.732 665.867 123.732 659.733 117.599C654.133 111.732 646.133 108.799 636 108.799ZM630.667 194.399C620.8 197.332 612 198.666 604.267 198.666H598.667C596.533 198.666 594.667 197.866 593.067 196.532C591.733 195.199 590.933 193.332 590.933 190.932V188.799C590.933 186.666 591.733 184.799 593.067 183.199C594.4 181.866 596.267 181.066 598.667 181.066H630.4V194.399H630.667Z" fill="#1E1E1E"/>
<path d="M345.6 152.801H306.133C304 152.801 302.133 152.001 300.533 150.668C299.2 149.334 298.4 147.468 298.4 145.068C298.4 142.934 299.2 141.068 300.533 139.468C301.867 138.134 303.733 137.334 306.133 137.334L369.333 140.534L361.867 106.934L292.8 108.801C282.933 108.801 274.933 111.734 268.8 117.868C262.667 124.001 259.733 131.734 259.733 141.868V149.334C259.733 159.201 262.667 167.201 268.8 173.334C274.933 179.468 282.667 182.401 292.8 182.401H340V190.134C340 192.268 339.2 194.134 337.867 195.734C336.533 197.068 334.667 197.868 332.267 197.868C315.2 197.868 260.8 190.934 260.8 190.934V227.468C260.8 227.468 319.467 227.468 345.333 227.468C355.2 227.468 363.2 224.534 369.333 218.401C375.467 212.268 378.4 204.534 378.4 194.401V185.601C378.4 175.734 375.467 167.734 369.333 161.601C363.467 155.734 355.467 152.801 345.6 152.801Z" fill="#1E1E1E"/>
<path d="M790.933 117.867C784.8 111.733 777.067 108.8 766.933 108.8H757.067C752 108.8 745.867 109.867 738.667 112C731.467 114.133 724.267 117.333 717.6 121.867L719.2 108H681.333V264.533H719.733V227.2H764.8C775.733 227.2 784.267 224 790.667 217.867C796.8 211.733 800 202.933 800 192V141.6C800 131.733 797.067 123.733 790.933 117.867ZM761.6 188.8C761.6 194.667 758.667 197.6 752.8 197.6H719.733V145.067C729.6 142.133 738.4 140.8 746.133 140.8H753.867C756 140.8 757.867 141.6 759.467 142.933C760.8 144.267 761.6 146.133 761.6 148.533V188.8Z" fill="#1E1E1E"/>
<path d="M590.667 66.6667L554.933 0L501.067 52.8L524 56.2667L508 188.8L487.2 71.4667H444L425.6 190.667L411.733 104.8L373.067 105.867L400.533 226.667H418.933H454.133L465.867 130.933L477.067 226.667H532L567.733 62.4L590.667 66.6667ZM556.8 48.8L521.867 205.067L538.133 46.1333L528.267 44.5333L551.467 21.6L566.933 50.4L556.8 48.8Z" fill="#FC4A00"/>
<path d="M207.467 110.932H162.667C151.733 110.932 143.2 114.132 136.8 120.266C130.667 126.399 127.467 135.199 127.467 146.132V196.532C127.467 206.399 130.4 214.399 136.533 220.532C142.667 226.666 150.4 229.599 160.533 229.599H170.4C175.467 229.599 181.6 228.532 188.8 226.399C196 224.266 203.2 221.066 209.867 216.532L212 227.466H246.133L246.933 184.532C233.333 187.999 219.467 191.199 205.067 194.132C196.267 196.532 188.267 197.866 181.333 197.866H173.6C171.467 197.866 169.6 197.066 168 195.732C166.667 194.399 165.867 192.532 165.867 190.132V149.332C165.867 143.466 168.8 140.532 174.667 140.532H207.733V181.599L247.2 172.532L249.067 71.7324H200.8L207.467 110.932Z" fill="#1E1E1E"/>
</g>
</g>
<defs>
<clipPath id="clip0_532_32">
<rect width="800" height="265" fill="white"/>
</clipPath>
</defs>
</svg>
