<svg width="1635" height="399" viewBox="0 0 1635 399" fill="none" xmlns="http://www.w3.org/2000/svg">
<g clip-path="url(#clip0_286_2)">
<path d="M212.743 4.21086C226.954 17.2145 253.67 42.5202 292.893 80.1277C300.088 87.021 306.06 92.7114 310.808 97.198C371.388 154.472 406.39 187.553 415.812 196.438C417.419 197.955 418.974 199.628 420.475 201.455C420.978 202.075 420.913 202.98 420.328 203.523L212.305 395.787C211.579 396.456 210.861 396.452 210.152 395.775C188.211 374.813 174.788 361.805 156.838 345.187C101.83 294.283 51.5166 248.05 5.89735 206.482C5.43233 206.058 4.54313 205.026 3.22975 203.386C2.96052 203.051 2.92793 202.697 3.13188 202.321C3.37659 201.889 4.20468 201.02 5.61593 199.715C56.9951 152.033 87.6863 123.27 97.6991 113.435C122.735 88.8228 151.752 61.0428 184.752 30.0924C194.55 20.8985 203.507 12.2796 211.624 4.23628C211.933 3.931 212.427 3.92019 212.75 4.21174L212.743 4.21086ZM211.69 237.078C211.756 236.977 211.871 236.919 211.991 236.924C212.111 236.929 212.22 236.997 212.278 237.103L254.348 318.074C254.466 318.297 254.705 318.429 254.957 318.411C255.209 318.392 255.426 318.226 255.51 317.988C256.31 315.614 257.342 313.22 258.606 310.805C264.137 300.274 269.15 290.093 273.645 280.263C285.302 254.753 301.072 218.199 320.952 170.597C321.849 168.443 327.07 156.333 336.615 134.266C336.778 133.899 336.851 133.646 336.835 133.508C336.77 132.928 336.554 132.867 336.186 133.324C324.819 147.69 313.304 162.863 302.266 175.847C286.913 193.916 274.334 208.743 264.528 220.327C258.45 227.514 254.029 232.605 251.263 235.599C251.072 235.805 250.798 235.914 250.518 235.895C250.238 235.876 249.981 235.731 249.819 235.501C245.822 229.848 242.02 223.493 238.415 216.437C237.754 215.148 237.603 214.071 237.962 213.206C247.082 191.18 263.475 151.176 287.143 93.1868C288.268 90.4131 287.914 90.2093 286.078 92.575C278.573 102.218 270.236 112.35 261.066 122.971C243.829 142.933 230.78 158.327 221.921 169.152C215.411 177.106 199.503 194.6 174.198 221.635C174.035 221.807 173.867 221.913 173.696 221.954C173.451 222.019 173.211 221.978 172.974 221.831C172.646 221.628 172.521 221.21 172.68 220.852C175.348 214.918 177.404 209.13 180.022 203.635C191.354 179.953 202.326 155.424 212.939 130.042C215.999 122.716 219.254 115.231 222.705 107.587C227.517 96.9004 233.208 83.856 239.775 68.4542C239.783 68.4379 239.779 68.4175 239.762 68.3931C239.714 68.3115 239.64 68.2299 239.542 68.1484C239.483 68.0922 239.404 68.063 239.323 68.0676C239.242 68.0723 239.166 68.1103 239.114 68.1728C235.92 72.211 231.405 78.8797 227.905 83.1627C212.992 101.379 198.231 118.605 183.62 134.84C169.426 150.609 154.795 166.521 139.727 182.575C139.521 182.795 139.221 182.9 138.923 182.856C138.625 182.812 138.368 182.625 138.234 182.355L114.165 133.947C113.479 132.584 113.141 132.666 113.149 134.191L113.479 275.379C113.479 276.407 113.826 276.537 114.519 275.77L143.251 243.918C143.407 243.745 143.642 243.667 143.871 243.712C144.099 243.757 144.287 243.919 144.365 244.138C151.723 264.321 158.417 284.018 164.445 303.231C164.617 303.802 165.073 305.683 165.816 308.872C165.856 309.041 165.994 309.169 166.166 309.196C166.338 309.223 166.509 309.143 166.599 308.994L211.69 237.078Z" fill="#B54CDB" stroke="#B54CDB" stroke-width="4.8" stroke-miterlimit="10"/>
<path d="M574.533 126.372C586.106 126.372 596.064 128.291 604.409 132.128C612.815 135.905 619.85 141.173 625.514 147.934V129.662H656.944V279.498H625.514V261.774C619.85 268.535 612.814 273.834 604.409 277.671C596.064 281.509 586.106 283.428 574.533 283.428C560.768 283.428 548.281 280.078 537.074 273.377C525.866 266.738 516.913 257.541 510.212 245.785C503.573 234.03 500.254 220.386 500.254 204.854C500.254 189.384 503.573 175.77 510.212 164.015C516.912 152.259 525.866 143.031 537.074 136.331C548.281 129.692 560.768 126.372 574.533 126.372ZM533.967 204.852C533.967 220.141 538.535 232.414 547.672 241.672C556.869 250.93 568.655 255.559 583.029 255.559C592.41 255.559 600.754 253.61 608.063 249.712C615.372 245.753 621.189 240.637 625.514 234.362V175.433C621.19 169.098 615.373 163.982 608.063 160.083C600.754 156.124 592.41 154.145 583.029 154.145C568.411 154.145 556.595 158.835 547.58 168.215C538.505 177.595 533.967 189.807 533.967 204.852ZM766.854 282.694C753.088 282.694 740.601 279.374 729.394 272.735C718.187 266.096 709.264 256.838 702.625 244.96C695.925 233.083 692.575 219.5 692.575 204.212C692.575 188.741 695.925 175.128 702.625 163.372C709.264 151.555 718.187 142.328 729.394 135.688C740.602 129.049 753.088 125.73 766.854 125.73C777.756 125.73 787.471 127.466 795.999 130.938C804.465 134.471 811.774 139.374 817.926 145.647V50.5352H849.264V279.495H817.926V262.776C811.774 268.867 804.465 273.709 795.999 277.302C787.471 280.896 777.756 282.694 766.854 282.694ZM726.288 204.214C726.288 219.258 730.826 231.471 739.901 240.851C748.915 250.231 760.732 254.921 775.351 254.921C784.731 254.921 793.075 252.972 800.384 249.073C807.693 245.114 813.541 239.967 817.926 233.633V174.794C813.541 168.46 807.694 163.344 800.384 159.445C793.076 155.486 784.731 153.506 775.351 153.506C760.976 153.506 749.19 158.105 739.993 167.303C730.856 176.439 726.288 188.743 726.288 204.214ZM945.47 284.705C928.903 284.705 915.259 280.35 904.539 271.64C893.88 262.93 887.667 250.596 885.901 234.637H910.112C914.072 253.153 925.401 262.412 944.1 262.412C953.297 262.412 960.393 260.463 965.388 256.564C970.443 252.666 972.971 247.336 972.971 240.576C972.971 233.571 970.504 228.333 965.57 224.861C960.637 221.328 951.957 218.496 939.531 216.364C922.355 213.075 909.99 208.05 902.437 201.289C894.884 194.528 891.108 184.265 891.108 170.499C891.108 160.937 893.575 152.714 898.509 145.831C903.443 138.949 910.052 133.68 918.335 130.025C926.619 126.31 935.755 124.452 945.744 124.452C963.225 124.452 976.534 128.381 985.671 136.238C994.807 144.034 1000.59 155.699 1003.03 171.23H979.184C978.27 163.556 975.134 157.16 969.774 152.044C964.474 146.928 957.561 144.369 949.034 144.369C940.75 144.369 934.111 146.349 929.116 150.308C924.061 154.206 921.533 159.414 921.533 165.931C921.533 172.082 924.061 176.773 929.116 180.001C934.111 183.29 942.272 185.909 953.602 187.858C972.362 190.904 985.458 196.355 992.888 204.212C1000.32 212.069 1004.04 222.546 1004.04 235.642C1004.04 250.686 998.797 262.624 988.32 271.456C977.844 280.288 963.56 284.705 945.47 284.705ZM1111.57 281.781H1084.16L1026.23 129.66H1059.58L1099.51 242.858L1128.29 162.367L1115.86 129.658H1147.57L1187.49 239.842L1226.14 129.658H1257.48L1199.28 281.78H1173.79L1142.36 199.642L1111.57 281.781ZM1348.75 126.372C1360.32 126.372 1370.31 128.29 1378.72 132.128C1387.12 135.904 1394.16 141.173 1399.82 147.934V129.661H1431.16V279.498H1399.82V261.773C1394.16 268.534 1387.12 273.833 1378.72 277.671C1370.31 281.508 1360.32 283.427 1348.75 283.427C1335.05 283.427 1322.56 280.077 1311.29 273.377C1300.09 266.737 1291.16 257.54 1284.52 245.785C1277.82 234.029 1274.47 220.386 1274.47 204.854C1274.47 189.383 1277.82 175.77 1284.52 164.014C1291.16 152.258 1300.09 143.031 1311.29 136.331C1322.56 129.691 1335.05 126.372 1348.75 126.372ZM1308.19 204.852C1308.19 220.14 1312.78 232.413 1321.98 241.671C1331.12 250.93 1342.87 255.559 1357.25 255.559C1366.63 255.559 1374.97 253.61 1382.28 249.711C1389.59 245.752 1395.44 240.636 1399.82 234.362V175.432C1395.44 169.098 1389.59 163.982 1382.28 160.083C1374.97 156.124 1366.63 154.144 1357.25 154.144C1342.63 154.144 1330.81 158.834 1321.8 168.215C1312.72 177.595 1308.19 189.807 1308.19 204.852ZM1560.72 282.693C1549.39 282.693 1539.46 280.805 1530.93 277.029C1522.47 273.191 1515.4 267.892 1509.74 261.131V349.754H1478.31V129.659H1509.74V147.292C1515.4 140.532 1522.47 135.263 1530.93 131.486C1539.46 127.649 1549.39 125.73 1560.72 125.73C1574.48 125.73 1586.97 129.05 1598.18 135.689C1609.39 142.328 1618.34 151.556 1625.04 163.372C1631.68 175.128 1635 188.741 1635 204.212C1635 219.501 1631.68 233.083 1625.04 244.961C1618.34 256.838 1609.39 266.096 1598.18 272.736C1586.97 279.375 1574.48 282.693 1560.72 282.693ZM1509.74 174.794V233.632C1514.06 239.967 1519.88 245.114 1527.19 249.073C1534.5 252.971 1542.84 254.92 1552.22 254.92C1566.84 254.92 1578.66 250.23 1587.67 240.85C1596.75 231.47 1601.29 219.258 1601.29 204.213C1601.29 188.742 1596.72 176.438 1587.58 167.302C1578.38 158.105 1566.6 153.506 1552.22 153.506C1542.84 153.506 1534.5 155.486 1527.19 159.445C1519.88 163.343 1514.06 168.459 1509.74 174.794Z" fill="white"/>
</g>
<defs>
<clipPath id="clip0_286_2">
<rect width="1635" height="399" fill="white"/>
</clipPath>
</defs>
</svg>
