<svg width="575" height="716" viewBox="0 0 575 716" fill="none" xmlns="http://www.w3.org/2000/svg">
<path d="M386.797 595.016C386.797 621.536 376.26 646.973 357.507 665.726C338.754 684.48 313.317 695.016 286.797 695.016C260.277 695.016 234.84 684.48 216.087 665.726C197.333 646.973 186.797 621.536 186.797 595.016" stroke="#999999" stroke-width="40" stroke-linecap="round" stroke-linejoin="round"/>
<path d="M72.829 561.683C56.514 558.219 42.0897 548.769 32.4013 535.193C22.713 521.616 18.4653 504.903 20.4963 488.349L53.8297 218.016C62.3403 162.437 90.633 111.8 133.504 75.4212C176.375 39.0418 230.94 19.3675 287.164 20.0155C343.387 19.3675 397.95 39.0418 440.82 75.4212C483.694 111.8 511.987 162.437 520.497 218.016L553.83 488.349C555.874 504.856 551.67 521.529 542.05 535.099C532.43 548.666 518.084 558.149 501.83 561.683C360.75 594.833 213.908 594.833 72.829 561.683Z" stroke="#999999" stroke-width="40" stroke-linecap="round" stroke-linejoin="round"/>
</svg>
