<svg width="1890" height="1890" viewBox="0 0 1890 1890" fill="none" xmlns="http://www.w3.org/2000/svg">
<g clip-path="url(#clip0_5_2)">
<mask id="mask0_5_2" style="mask-type:luminance" maskUnits="userSpaceOnUse" x="0" y="0" width="1890" height="1890">
<path d="M1511.87 1889.73H378C169.2 1889.73 0 1720.53 0 1511.87V378C0 169.2 169.2 -3.34531e-05 378 -3.34531e-05H1511.87C1720.67 -3.34531e-05 1889.87 169.2 1889.87 378V1511.87C1889.73 1720.53 1720.53 1889.73 1511.87 1889.73Z" fill="white"/>
</mask>
<g mask="url(#mask0_5_2)">
<path d="M0 -3.34531e-05H1889.73V1889.73H0V-3.34531e-05Z" fill="#3A5EB4"/>
</g>
<mask id="mask1_5_2" style="mask-type:luminance" maskUnits="userSpaceOnUse" x="0" y="0" width="1890" height="1890">
<path d="M1511.87 -3.34531e-05H378C169.2 -3.34531e-05 0 169.2 0 378V1511.87C0 1720.53 169.2 1889.73 378 1889.73H1511.87C1720.53 1889.73 1889.73 1720.53 1889.87 1511.87V378C1889.87 169.2 1720.67 -3.34531e-05 1511.87 -3.34531e-05Z" fill="white"/>
</mask>
<g mask="url(#mask1_5_2)">
<path d="M2098.8 1619.07C1955.21 1748.23 1789.68 1938.85 1581.75 1931.35C1525.77 1893.63 1614.28 1820.09 1642.65 1788.27C1733.29 1686.6 1822.71 1578.08 1910.8 1467.47C2227.73 1069.57 2123.99 1291.37 2098.8 1619.07Z" fill="#ED118A"/>
<path d="M1730.27 -338C1588.81 -14.6002 1415.39 306.666 1170.68 565.074C1001.35 743.878 883.453 877.408 674.524 1038.11C432.842 1223.99 196.396 1368.89 -32.5249 1566.01C-153.496 1677.39 -296.119 1769.48 -450.01 1834.92C-449.067 1847.47 -436.134 2028.93 -435.734 2031.33C-433.6 2030.13 -390.8 1995.73 -382.267 1989.47C-21.0999 1738.29 394.169 1569.49 747.714 1300.51C1182.74 934.565 1547.12 482.093 1858.27 7.87974C2141.45 -387.507 2327.17 -394.16 1730.27 -338Z" fill="#ED118A"/>
<path d="M345.733 99.9998C261.333 189.333 178.933 278.8 96.3997 370C51.4664 419.867 10.933 473.6 -33.467 524.267C-112.8 614.8 -194.934 704.267 -288.667 778.267C-383.734 853.2 -486 928.933 -582.934 1001.47C-583.2 996 -594.667 741.867 -594.934 736.133C-553.867 666.533 -512.534 587.733 -482 512.133C-464 467.467 -448.134 420.533 -430 375.867C-395.334 289.867 -349.867 211.2 -282.934 148.533C-245.6 113.467 -202.667 88.6665 -158.534 65.0665C-26.1336 -5.86683 106.133 -78.0002 238.8 -148.267C317.866 -190.267 377.733 -263.467 448.266 -318.8L728.133 -331.467C601.066 -186.8 478.133 -40.1335 345.733 99.9998Z" fill="#ED118A"/>
<path d="M959.438 2133.95C1064.76 2027.01 1433.77 1778.6 1374.97 1744.56C1369.68 1741.49 1363.13 1741.51 1357.63 1744.16C1154.97 1842.13 965.776 1981.33 823.389 2157.83C819.716 2162.39 814.19 2165.03 808.34 2164.97C774.997 2164.63 667.21 2163.41 598.062 2162.65C579.586 2162.45 572.184 2138.71 587.27 2128.04C598.978 2119.76 608.666 2112.72 614.133 2108.67C781.126 1979.92 967.145 1883.29 1147.37 1778.25C1363.45 1652.32 1550.79 1482.53 1697.41 1279.94C1764.85 1186.75 1833.61 1094.72 1914.16 1013.18C1915.03 1012.3 1915.97 1011.52 1917 1010.83C2141.87 858.003 2204.07 400.973 2514.24 239.467C2527.05 232.8 2542.33 242.093 2542.21 256.547C2541.19 374.12 2385.8 469.707 2375.61 590.353C2375.52 591.54 2375.32 592.721 2375 593.869C2254.41 1032.33 1829.48 1329.73 1627.81 1558.63C1508.03 1694.6 1365.97 1965.11 1202.71 2145.72C1200.91 2147.71 1199.57 2150.04 1198.73 2152.59C1190.57 2177.45 1044.42 2168.87 972.398 2166.31C955.853 2165.72 947.821 2145.73 959.438 2133.95Z" fill="#ED118A"/>
<path d="M-529.283 2217.41C-124.977 1938.44 358.319 1793.23 754.329 1505.64C983.72 1308.28 1159.19 1050.52 1391.83 858.63C1456.12 819.896 1438.08 878.673 1417.2 916.758C1183.54 1385.41 716.989 1654.32 282.263 1911.39C-31.2528 2111.87 -93.699 2279 -529.283 2217.41Z" fill="#ED118A"/>
<path d="M2255.77 295.494C2606.75 121.227 2515.67 -62.8398 2470.21 -414.546C2286.8 -284.267 2171.43 -136.96 2031.33 34.9334C1616.96 514.48 1470.15 1216.28 908.638 1575.19C620.309 1742.91 387.262 1981.47 140.925 2202.52C196.606 2182.95 508.898 2215.63 524.666 2129.73C598.304 2005.23 678.673 1906.43 814.016 1847.75C1067.91 1714.47 1286.97 1525.19 1509.73 1346.53C1815.4 1044.18 1815.65 473.96 2255.77 295.494Z" fill="#ED118A"/>
<path d="M1689.12 -336.774C1466.04 67.3197 1057.21 480.32 643.792 789.556C482.805 909.973 295.898 990.734 98.1564 1027.01C-52.7082 1054.68 -118.475 1098.67 -334.078 1279.79C-408.618 1357.49 -448.751 1429.63 -513.151 1553.76C-513.284 1549.49 -530.751 1166.56 -530.751 1166.56C-359.232 932.895 -96.9832 831.548 101.656 632.432C265.452 461.4 379.773 246.907 530.856 64.8265C606.293 -31.0535 845.417 -247.334 890.448 -300.654C890.982 -300.64 1137.92 -311.84 1137.92 -311.84C1025.04 -168.867 910.066 -32.4401 671.553 249.827C642.857 283.787 405.833 527.826 319.194 662.101C290.985 705.817 271.878 750.27 293.165 766.856C315.714 784.425 347.466 755.208 398.814 723.124C693.465 539.026 899.448 365.24 1138.06 68.0265C1524.31 -413.08 1228.25 -370.307 1689.12 -336.774Z" fill="#ED118A"/>
<path d="M111.276 934.759C-5.23196 965.897 -74.4387 1085.59 -43.2971 1202.1C-12.1585 1318.61 107.535 1387.81 224.042 1356.68C340.549 1325.53 409.758 1205.84 378.614 1089.33C378.592 1089.24 378.568 1089.15 378.544 1089.07C347.35 972.655 227.693 903.565 111.276 934.759ZM197.922 1258.13C135.768 1274.86 71.8138 1238.04 55.0779 1175.88C38.3471 1113.73 75.1691 1049.77 137.325 1033.04C199.48 1016.31 263.433 1053.13 280.169 1115.28L280.204 1115.42C296.85 1177.54 260.029 1241.41 197.922 1258.13ZM1080.45 675.069C917.44 718.748 810.574 848.505 841.774 964.944C872.973 1081.38 1030.4 1140.33 1193.41 1096.65C1356.43 1052.97 1463.29 923.209 1432.09 806.769C1400.89 690.331 1243.47 631.389 1080.45 675.069ZM1167.06 998.304C1054.48 1028.47 954.344 991.689 940.117 938.593C925.89 885.497 994.222 803.579 1106.8 773.413C1219.39 743.247 1319.52 780.023 1333.75 833.12C1347.97 886.216 1279.91 968.067 1167.06 998.304ZM1787.04 495.72C1759.85 503.013 1743.71 530.96 1751 558.153L1795.25 723.299L1472.52 583.425C1465.16 580.116 1456.52 583.397 1453.2 590.756C1451.81 593.86 1451.55 597.357 1452.45 600.64L1543.41 940.111C1550.69 967.303 1578.65 983.437 1605.84 976.151C1633.04 968.865 1649.17 940.916 1641.89 913.724L1597.64 748.579L1920.41 888.585C1927.89 891.779 1936.56 888.293 1939.75 880.805C1941.04 877.781 1941.28 874.413 1940.43 871.239L1849.47 531.773C1842.19 504.573 1814.24 488.44 1787.04 495.72ZM792.094 1088.79L625.352 1133.47L762.748 794.572C765.765 787.007 762.078 778.435 754.513 775.419C751.594 774.255 748.381 774.055 745.338 774.845L437.273 857.392C410.081 864.677 393.942 892.632 401.228 919.824C408.514 947.015 436.468 963.155 463.66 955.868L602.19 918.749L464.03 1258C460.901 1265.43 464.39 1273.99 471.824 1277.12C474.869 1278.4 478.261 1278.61 481.438 1277.72L818.516 1187.4C845.293 1178.71 859.958 1149.96 851.265 1123.18C843.208 1098.35 817.697 1083.62 792.166 1089.06L792.094 1088.79Z" fill="white"/>
</g>
</g>
<defs>
<clipPath id="clip0_5_2">
<rect width="1890" height="1890" fill="white"/>
</clipPath>
</defs>
</svg>
