<svg width="807" height="655" viewBox="0 0 807 655" fill="none" xmlns="http://www.w3.org/2000/svg">
<path d="M25.625 327.167C25.625 184.724 25.625 113.503 69.8762 69.2512C114.128 25 185.349 25 327.792 25H478.875C621.316 25 692.541 25 736.789 69.2512C781.042 113.503 781.042 184.724 781.042 327.167C781.042 469.608 781.042 540.832 736.789 585.081C692.541 629.333 621.316 629.333 478.875 629.333H327.792C185.349 629.333 114.128 629.333 69.8762 585.081C25.625 540.832 25.625 469.608 25.625 327.167Z" stroke="black" stroke-width="50"/>
<path d="M401.839 253.891V401.197M338.375 290.717L465.277 364.37M465.27 290.717L338.367 364.37" stroke="black" stroke-width="30" stroke-linecap="round"/>
<path d="M209.209 253.891V401.197M145.745 290.717L272.646 364.37M272.638 290.717L145.736 364.37" stroke="black" stroke-width="30" stroke-linecap="round"/>
<path d="M595.608 253.891V401.197M532.14 290.717L659.043 364.37M659.035 290.717L532.133 364.37" stroke="black" stroke-width="30" stroke-linecap="round"/>
</svg>
