<svg width="635" height="635" viewBox="0 0 635 635" fill="none" xmlns="http://www.w3.org/2000/svg">
<path d="M486.238 6.10352e-05L485.441 0.0124634C485.441 0.0124634 485.441 0.0124634 485.453 0.0124634C485.453 0.0124634 485.453 6.10352e-05 485.462 0.0124634L486.238 6.10352e-05Z" fill="#858585"/>
<path d="M604.814 76.2674L604.768 76.2216C604.698 76.1521 604.641 76.0839 604.574 76.0157H604.562C604.483 75.9462 604.448 75.9016 604.323 75.7887L559.042 30.5064C559.03 30.4841 559.007 30.4729 558.985 30.4494C538.741 10.2075 511.983 -0.0331618 485.452 0.0127269C458.921 -0.0331618 432.162 10.1963 411.896 30.4729L369.28 73.0887L353.104 89.2527L0 442.369V635.002H192.642L545.748 281.909L561.923 265.733L604.54 223.107C624.805 202.851 635.035 176.082 635 149.562C635.033 123.156 624.885 96.5217 604.846 76.3133L604.814 76.2674ZM169.382 578.863H56.148V465.631L392.804 128.963L506.036 242.196L169.382 578.863ZM564.84 183.404L538.389 209.843L425.168 96.6111L451.607 70.1729C461.006 60.7856 473.125 56.1843 485.452 56.1508C497.778 56.1843 509.887 60.7868 519.296 70.1729L564.84 115.704C574.227 125.114 578.828 137.235 578.852 149.56C578.828 161.886 574.227 173.996 564.84 183.404Z" fill="#858585"/>
</svg>
