<?xml version="1.0" standalone="no"?>
<!DOCTYPE svg PUBLIC "-//W3C//DTD SVG 20010904//EN"
 "http://www.w3.org/TR/2001/REC-SVG-20010904/DTD/svg10.dtd">
<svg version="1.0" xmlns="http://www.w3.org/2000/svg"
 width="512.000000pt" height="512.000000pt" viewBox="0 0 512.000000 512.000000"
 preserveAspectRatio="xMidYMid meet">

<g transform="translate(0.000000,512.000000) scale(0.100000,-0.100000)"
fill="#000000" stroke="none">
<path d="M1140 5114 c-208 -27 -407 -101 -580 -217 -96 -64 -273 -241 -337
-337 -95 -142 -163 -302 -199 -470 -26 -119 -26 -381 0 -500 55 -257 169 -466
355 -651 185 -186 394 -300 651 -355 119 -26 381 -26 500 0 257 55 466 169
651 355 186 185 300 394 355 651 26 119 26 381 0 500 -55 257 -169 466 -355
651 -182 182 -382 293 -631 350 -83 19 -331 33 -410 23z m310 -159 c168 -25
309 -79 455 -175 94 -62 244 -209 305 -299 265 -394 265 -888 0 -1282 -56 -82
-207 -233 -289 -289 -395 -266 -887 -265 -1285 2 -92 62 -235 211 -301 312
-69 106 -137 268 -162 386 -24 118 -24 345 0 460 46 212 155 410 311 566 259
259 607 374 966 319z"/>
<path d="M1135 4504 c-387 -85 -621 -491 -501 -869 34 -107 87 -194 167 -274
79 -79 166 -132 274 -168 69 -23 96 -27 205 -27 109 0 136 4 205 27 108 36
195 89 274 168 79 79 132 166 168 274 23 69 27 96 27 205 0 109 -4 136 -27
205 -92 278 -332 459 -622 471 -67 2 -123 -1 -170 -12z m263 -149 c193 -46
351 -203 397 -396 88 -375 -258 -722 -633 -634 -193 46 -351 203 -397 396 -88
375 258 722 633 634z"/>
<path d="M4657 5110 c-111 -28 -36 44 -2364 -2283 -2146 -2146 -2223 -2224
-2255 -2292 -30 -63 -33 -79 -33 -160 0 -77 5 -99 28 -151 36 -77 113 -154
192 -191 52 -24 73 -28 150 -28 81 0 97 3 160 33 67 32 117 80 1138 1100 945
945 1067 1071 1067 1097 0 60 -54 99 -103 74 -12 -6 -501 -490 -1087 -1074
-1133 -1132 -1083 -1085 -1175 -1085 -93 0 -192 74 -215 160 -14 52 -8 126 14
167 8 15 1015 1028 2238 2250 2374 2372 2239 2243 2333 2243 119 0 225 -106
225 -225 0 -92 47 -42 -1085 -1175 -584 -586 -1068 -1075 -1074 -1087 -25 -49
14 -103 74 -103 27 0 151 121 1097 1068 1020 1020 1068 1070 1100 1137 30 63
33 79 33 160 0 80 -3 97 -31 155 -62 129 -178 208 -316 215 -40 3 -90 0 -111
-5z"/>
<path d="M3700 2554 c-208 -27 -407 -101 -580 -217 -96 -64 -273 -241 -337
-337 -95 -142 -163 -302 -199 -470 -26 -119 -26 -381 0 -500 55 -257 169 -466
355 -651 185 -186 394 -300 651 -355 119 -26 381 -26 500 0 257 55 466 169
651 355 186 185 300 394 355 651 26 119 26 381 0 500 -55 257 -169 466 -355
651 -182 182 -382 293 -631 350 -83 19 -331 33 -410 23z m310 -159 c168 -25
309 -79 455 -175 94 -62 244 -209 305 -299 265 -394 265 -888 0 -1282 -56 -82
-207 -233 -289 -289 -395 -266 -887 -265 -1285 2 -92 62 -235 211 -301 312
-69 106 -137 268 -162 386 -24 118 -24 345 0 460 46 212 155 410 311 566 259
259 607 374 966 319z"/>
<path d="M3695 1944 c-387 -85 -621 -491 -501 -869 34 -107 87 -194 167 -274
79 -79 166 -132 274 -168 69 -23 96 -27 205 -27 109 0 136 4 205 27 108 36
195 89 274 168 79 79 132 166 168 274 23 69 27 96 27 205 0 109 -4 136 -27
205 -92 278 -332 459 -622 471 -67 2 -123 -1 -170 -12z m263 -149 c193 -46
351 -203 397 -396 88 -375 -258 -722 -633 -634 -193 46 -351 203 -397 396 -88
375 258 722 633 634z"/>
</g>
</svg>
