<svg width="781" height="753" viewBox="0 0 781 753" fill="none" xmlns="http://www.w3.org/2000/svg">
<path d="M554.563 0H226.088C182.458 0 160.643 3.24307e-06 143.113 10.8348C125.582 21.6695 115.825 41.1812 96.3138 80.2049L45.4002 208.907C33.6372 238.642 23.3454 273.69 43.1462 298.8C56.4301 315.645 77.0216 326.458 100.14 326.458C140.206 326.458 172.686 293.979 172.686 253.912C172.686 293.979 205.166 326.458 245.232 326.458C285.298 326.458 317.778 293.979 317.778 253.912C317.778 293.979 350.258 326.458 390.325 326.458C430.393 326.458 462.872 293.979 462.872 253.912C462.872 293.979 495.35 326.458 535.418 326.458C575.485 326.458 607.964 293.979 607.964 253.912C607.964 293.979 640.443 326.458 680.51 326.458C703.627 326.458 724.219 315.645 737.506 298.8C757.307 273.69 747.017 238.642 735.253 208.907L684.341 80.2049C664.826 41.1812 655.072 21.6695 637.541 10.8348C620.01 3.24307e-06 598.196 0 554.563 0Z" fill="black"/>
<path fill-rule="evenodd" clip-rule="evenodd" d="M680.518 698.257H753.064C768.088 698.257 780.269 710.437 780.269 725.462C780.269 740.486 768.088 752.667 753.064 752.667H27.6023C12.5776 752.667 0.397461 740.486 0.397461 725.462C0.397461 710.437 12.5776 698.257 27.6023 698.257H100.148V380.867C127.122 380.867 152.131 372.456 172.695 358.113C193.259 372.456 218.267 380.867 245.241 380.867C272.215 380.867 297.223 372.456 317.787 358.113C338.35 372.456 363.361 380.867 390.333 380.867C417.306 380.867 442.316 372.456 462.879 358.113C483.443 372.456 508.453 380.867 535.426 380.867C562.398 380.867 587.409 372.456 607.972 358.113C628.535 372.456 653.545 380.867 680.518 380.867V698.257ZM299.65 698.257H481.016V598.506C481.016 564.605 481.016 547.655 473.725 535.028C468.951 526.758 462.081 519.888 453.811 515.11C441.184 507.823 424.234 507.823 390.333 507.823C356.432 507.823 339.482 507.823 326.855 515.11C318.585 519.888 311.715 526.758 306.94 535.028C299.65 547.655 299.65 564.605 299.65 598.506V698.257Z" fill="black"/>
</svg>
