<svg width="667" height="667" viewBox="0 0 667 667" fill="none" xmlns="http://www.w3.org/2000/svg">
<mask id="mask0_291_9" style="mask-type:alpha" maskUnits="userSpaceOnUse" x="0" y="0" width="667" height="667">
<path d="M549.447 492.247C528.237 497.317 506.097 500.001 483.333 500.001C326.853 500.001 200 373.147 200 216.668C200 200.552 201.345 184.75 203.93 169.369C202.724 170.529 201.477 171.598 200.165 172.594C190.811 179.695 179.162 182.331 155.863 187.603L134.651 192.402C52.6621 210.953 11.6674 220.228 1.91406 251.592C-7.83927 282.957 20.1084 315.637 76.0034 380.997L90.4641 397.907C106.347 416.481 114.289 425.767 117.862 437.257C121.435 448.747 120.234 461.137 117.833 485.921L115.647 508.481C107.196 595.687 102.971 639.291 128.505 658.674C154.039 678.057 192.422 660.387 269.19 625.041L289.05 615.894C310.863 605.851 321.77 600.831 333.333 600.831C344.897 600.831 355.803 605.851 377.617 615.894L397.477 625.041C474.243 660.387 512.627 678.057 538.163 658.674C563.697 639.291 559.47 595.687 551.02 508.481L549.447 492.247Z" fill="white"/>
<path d="M238.435 113.613L227.511 133.208C215.513 154.731 209.514 165.493 200.161 172.594C201.473 171.597 202.72 170.529 203.926 169.368C201.341 184.75 199.996 200.551 199.996 216.667C199.996 373.147 326.847 500 483.331 500C506.094 500 528.231 497.317 549.444 492.247L548.831 485.92C546.427 461.137 545.227 448.747 548.801 437.257C552.374 425.767 560.314 416.48 576.197 397.907L590.661 380.997C646.554 315.637 674.501 282.953 664.747 251.591C654.994 220.227 614.001 210.952 532.011 192.401L510.801 187.602C487.501 182.33 475.851 179.694 466.497 172.594C457.144 165.493 451.144 154.731 439.147 133.208L428.224 113.612C386.001 37.8707 364.891 0 333.331 0C301.767 0 280.657 37.871 238.435 113.613Z" fill="white"/>
</mask>
<g mask="url(#mask0_291_9)">
<circle cx="325" cy="314" r="503" fill="white"/>
</g>
</svg>
