<svg width="668" height="668" viewBox="0 0 668 668" fill="none" xmlns="http://www.w3.org/2000/svg">
<path fill-rule="evenodd" clip-rule="evenodd" d="M667.333 334C667.333 518.093 518.093 667.333 334 667.333C149.905 667.333 0.666504 518.093 0.666504 334C0.666504 149.905 149.905 0.666504 334 0.666504C518.093 0.666504 667.333 149.905 667.333 334ZM345.943 246.748C313.523 260.233 248.725 288.143 151.552 330.48C135.772 336.756 127.506 342.897 126.754 348.897C125.482 359.043 138.186 363.036 155.485 368.476C157.838 369.216 160.276 369.983 162.775 370.793C179.795 376.326 202.689 382.8 214.591 383.056C225.387 383.29 237.436 378.84 250.739 369.703C341.533 308.416 388.4 277.44 391.34 276.77C393.416 276.3 396.293 275.706 398.243 277.44C400.193 279.173 400 282.453 399.793 283.333C398.536 288.7 348.67 335.06 322.863 359.05C314.82 366.53 309.113 371.833 307.946 373.046C305.333 375.76 302.67 378.326 300.11 380.793C284.3 396.036 272.44 407.466 300.767 426.133C314.38 435.103 325.27 442.52 336.136 449.92C348.003 458.003 359.84 466.063 375.156 476.103C379.056 478.66 382.783 481.317 386.413 483.903C400.223 493.75 412.63 502.596 427.96 501.183C436.866 500.366 446.066 491.99 450.74 467.01C461.783 407.976 483.49 280.066 488.507 227.36C488.947 222.742 488.393 216.833 487.95 214.238C487.503 211.644 486.577 207.947 483.203 205.211C479.21 201.97 473.046 201.287 470.286 201.333C457.75 201.557 438.513 208.245 345.943 246.748Z" fill="#1D94CF"/>
</svg>
