<svg width="800" height="800" viewBox="0 0 800 800" fill="none" xmlns="http://www.w3.org/2000/svg">
<path fill-rule="evenodd" clip-rule="evenodd" d="M733.333 400C733.333 584.093 584.093 733.333 400 733.333C215.905 733.333 66.6665 584.093 66.6665 400C66.6665 215.905 215.905 66.6665 400 66.6665C584.093 66.6665 733.333 215.905 733.333 400ZM411.943 312.748C379.523 326.233 314.725 354.143 217.552 396.48C201.772 402.756 193.506 408.897 192.754 414.897C191.482 425.043 204.186 429.036 221.485 434.476C223.838 435.216 226.276 435.983 228.775 436.793C245.795 442.326 268.689 448.8 280.591 449.056C291.387 449.29 303.436 444.84 316.739 435.703C407.533 374.416 454.4 343.44 457.34 342.77C459.416 342.3 462.293 341.706 464.243 343.44C466.193 345.173 466 348.453 465.793 349.333C464.536 354.7 414.67 401.06 388.863 425.05C380.82 432.53 375.113 437.833 373.946 439.046C371.333 441.76 368.67 444.326 366.11 446.793C350.3 462.036 338.44 473.466 366.767 492.133C380.38 501.103 391.27 508.52 402.136 515.92C414.003 524.003 425.84 532.063 441.156 542.103C445.056 544.66 448.783 547.317 452.413 549.903C466.223 559.75 478.63 568.596 493.96 567.183C502.866 566.366 512.066 557.99 516.74 533.01C527.783 473.976 549.49 346.066 554.507 293.36C554.947 288.742 554.393 282.833 553.95 280.238C553.503 277.644 552.577 273.947 549.203 271.211C545.21 267.97 539.046 267.287 536.286 267.333C523.75 267.557 504.513 274.245 411.943 312.748Z" fill="white"/>
</svg>
