<svg width="48" height="48" viewBox="0 0 48 48" fill="none" xmlns="http://www.w3.org/2000/svg">
<path d="M0 22.5341C0 14.6464 0 10.7026 1.53505 7.68991C2.88531 5.03986 5.03986 2.88531 7.68991 1.53505C10.7026 0 14.6464 0 22.5341 0H25.4659C33.3536 0 37.2974 0 40.3101 1.53505C42.9601 2.88531 45.1147 5.03986 46.465 7.68991C48 10.7026 48 14.6464 48 22.5341V25.4659C48 33.3536 48 37.2974 46.465 40.3101C45.1147 42.9601 42.9601 45.1147 40.3101 46.465C37.2974 48 33.3536 48 25.4659 48H22.5341C14.6464 48 10.7026 48 7.68991 46.465C5.03986 45.1147 2.88531 42.9601 1.53505 40.3101C0 37.2974 0 33.3536 0 25.4659V22.5341Z" fill="url(#paint0_linear_7668_1045)"/>
<path d="M36.3171 16.9374C34.598 16.9374 33.0455 17.4573 31.72 18.3471V10.2258H28.053V25.2033C28.053 29.7601 31.7603 33.4271 36.2969 33.4271C40.8336 33.4271 44.583 29.782 44.583 25.1612C44.583 20.5403 40.9159 16.9374 36.3171 16.9374ZM19.6754 26.2615L16.3196 17.5196H13.751L10.375 26.2615L6.99911 17.5196H2.99888L8.90311 32.8907H11.4717L15.0142 23.735L18.5769 32.8907H21.1455L27.0296 17.5196H23.0513L19.6754 26.2615ZM36.2987 29.7619C33.8126 29.7619 31.72 27.7737 31.72 25.1832C31.72 22.5926 33.6881 20.6264 36.3189 20.6264C38.9497 20.6264 40.9178 22.6768 40.9178 25.1832C40.9178 27.6895 38.8252 29.7619 36.2987 29.7619Z" fill="white"/>
<defs>
<linearGradient id="paint0_linear_7668_1045" x1="16.1455" y1="52.1455" x2="45.6" y2="3.05455" gradientUnits="userSpaceOnUse">
<stop stop-color="#6F01FB"/>
<stop offset="1" stop-color="#FF49D7"/>
</linearGradient>
</defs>
</svg>
