<svg xmlns="http://www.w3.org/2000/svg"  viewBox="0 0 50 50" width="50px" height="50px"><path d="M46.894 23.986c.004 0 .007 0 .011 0 .279 0 .545-.117.734-.322.192-.208.287-.487.262-.769C46.897 11.852 38.154 3.106 27.11 2.1c-.28-.022-.562.069-.77.262-.208.192-.324.463-.321.746C26.193 17.784 28.129 23.781 46.894 23.986zM46.894 26.014c-18.765.205-20.7 6.202-20.874 20.878-.003.283.113.554.321.746.186.171.429.266.679.266.03 0 .061-.001.091-.004 11.044-1.006 19.787-9.751 20.79-20.795.025-.282-.069-.561-.262-.769C47.446 26.128 47.177 26.025 46.894 26.014zM22.823 2.105C11.814 3.14 3.099 11.884 2.1 22.897c-.025.282.069.561.262.769.189.205.456.321.734.321.004 0 .008 0 .012 0 18.703-.215 20.634-6.209 20.81-20.875.003-.283-.114-.555-.322-.747C23.386 2.173 23.105 2.079 22.823 2.105zM3.107 26.013c-.311-.035-.555.113-.746.321-.192.208-.287.487-.262.769.999 11.013 9.715 19.757 20.724 20.792.031.003.063.004.094.004.25 0 .492-.094.678-.265.208-.192.325-.464.322-.747C23.741 32.222 21.811 26.228 3.107 26.013z"/></svg>