<?xml version="1.0" encoding="UTF-8" standalone="no"?>
<svg
   version="1.1"
   width="162.71957"
   height="162.69286"
   id="svg7"
   viewBox="0 0 162.71957 162.69286"
   sodipodi:docname="ee592b498da76764c7fe6f084e7fe313.cdr"
   xmlns:inkscape="http://www.inkscape.org/namespaces/inkscape"
   xmlns:sodipodi="http://sodipodi.sourceforge.net/DTD/sodipodi-0.dtd"
   xmlns="http://www.w3.org/2000/svg"
   xmlns:svg="http://www.w3.org/2000/svg">
  <defs
     id="defs11" />
  <sodipodi:namedview
     id="namedview9"
     pagecolor="#ffffff"
     bordercolor="#666666"
     borderopacity="1.0"
     inkscape:pageshadow="2"
     inkscape:pageopacity="0.0"
     inkscape:pagecheckerboard="0" />
  <g
     id="Layer1000"
     transform="translate(-216.29865,-339.59075)">
    <path
       d="m 251.4538,339.7789 c 3.7329,-0.2851 7.4809,-0.1444 11.2214,-0.1749 24.2104,0 48.4208,0 72.6274,0 6.9145,-0.0836 14.0114,0.1674 20.5763,2.5507 7.8079,2.7445 14.4676,8.5263 18.4362,15.7715 3.5276,6.333 4.5691,13.6809 4.687,20.8349 -0.008,26.3467 -0.004,52.6934 -0.004,79.0363 0.0837,6.2303 -0.0266,12.5519 -1.6573,18.6035 -1.589,5.7513 -4.5844,11.1644 -8.9103,15.3039 -4.6832,4.8771 -10.9743,8.0625 -17.5657,9.4349 -4.3715,0.84 -8.8342,1.2011 -13.2817,1.1366 -27.373,0.004 -54.7423,-0.008 -82.1153,0.004 -6.5725,-0.1786 -13.2969,-0.9922 -19.2764,-3.9039 -7.5151,-3.6112 -13.658,-10.062 -16.8017,-17.7939 -2.2731,-5.3825 -2.927,-11.2898 -3.0828,-17.0791 -0.0114,-27.871 0.004,-55.742 -0.008,-83.6092 -0.019,-7.69 1.0378,-15.6385 4.9265,-22.4048 3.9913,-7.0514 10.5524,-12.6469 18.2119,-15.342 3.8394,-1.4559 7.9448,-1.9957 12.0159,-2.3682 z"
       style="fill:#00e2b8;fill-rule:evenodd"
       id="path2" />
    <path
       d="m 238.2329,390.6249 c 5.873,-5.7932 11.7308,-11.6015 17.581,-17.4175 13.867,13.7113 27.7151,27.4452 41.5442,41.1945 13.8899,-13.6998 27.7456,-27.4377 41.5936,-41.1793 5.8692,5.7856 11.7118,11.6016 17.5887,17.3871 -10.199,10.1646 -20.4358,20.2912 -30.6727,30.4141 -4.4246,4.2726 -9.8225,7.5379 -15.6764,9.4272 -8.093,2.6647 -17.0184,2.7026 -25.1455,0.1406 -6.1733,-1.9197 -11.8524,-5.356 -16.4558,-9.8871 -10.1228,-10.0241 -20.2153,-20.0784 -30.3571,-30.0796 z m 46.7482,56.1678 c 0.0532,-3.6797 3.33,-6.8917 6.9944,-6.964 3.5352,-0.0227 7.0704,-0.004 10.6055,-0.008 2.8434,-0.0114 5.588,1.817 6.6828,4.4399 0.4979,1.1556 0.5854,2.4328 0.6006,3.6759 -0.0114,9.6058 -0.004,19.2117 -0.004,28.8175 -8.2944,0.0494 -16.5888,0.008 -24.8832,0.019 0,-9.9935 -0.0114,-19.9872 0.004,-29.9807 z"
       style="fill:#000000;fill-rule:evenodd"
       id="path4" />
  </g>
</svg>
