<svg width="800" height="560" viewBox="0 0 800 560" fill="none" xmlns="http://www.w3.org/2000/svg">
<path fill-rule="evenodd" clip-rule="evenodd" d="M319.538 383.445V158.972C399.226 196.469 460.944 232.692 533.938 271.745C473.734 305.134 399.226 342.597 319.538 383.445ZM763.64 47.3314C749.894 29.221 726.466 15.1236 701.524 10.4564C628.21 -3.46564 170.839 -3.50524 97.5661 10.4564C77.5643 14.206 59.7535 23.2693 44.4533 37.3509C-20.0145 97.1869 0.186647 418.068 15.7259 470.046C22.2603 492.545 30.7076 508.77 41.346 519.421C55.0524 533.502 73.8186 543.198 95.3743 547.546C155.738 560.032 466.722 567.013 700.248 549.421C721.764 545.672 740.809 535.664 755.83 520.984C815.437 461.387 811.374 122.485 763.64 47.3314Z" fill="#FF0000"/>
</svg>
