<svg width="12" height="12" viewBox="0 0 12 12" fill="none" xmlns="http://www.w3.org/2000/svg">
<path d="M9.8715 9.0225L7.956 8.54351L7.84549 8.10101C9.16699 7.87852 9.84698 7.48252 9.87698 7.46501C9.94798 7.4235 9.99199 7.34801 9.99799 7.266C10.0035 7.18399 9.96698 7.10351 9.90248 7.05199C9.89351 7.04501 9 6.30701 9 3.75C9 1.59349 8.49551 0.499992 7.5 0.499992H7.35251C6.99349 0.153 6.72401 0 6 0C5.06051 0 3 0.944508 3 3.75C3 6.30701 2.10649 7.04501 2.1 7.05C2.03351 7.09999 1.99601 7.17949 1.99999 7.26251C2.00449 7.34602 2.04949 7.42102 2.121 7.464C2.151 7.482 2.8245 7.87999 4.15399 8.10199L4.04348 8.54348L2.12801 9.0225C0.874992 9.336 0 10.457 0 11.75C0 11.888 0.112008 12 0.250008 12H11.75C11.888 12 12 11.887 12 11.749C12 10.457 11.125 9.336 9.8715 9.0225Z" fill="#FBA3F7"/>
</svg>
