<svg width="18" height="19" viewBox="0 0 18 19" fill="none" xmlns="http://www.w3.org/2000/svg">
<g filter="url(#filter0_d_161_14)">
<path d="M3 15.0007C3.27586 13.2723 4.80692 10.3332 8.7931 10.334C10.5653 10.3343 11.5411 10.6185 12.5 11.4158M15 15.0007C14.873 14.5763 14.8966 14.2227 14.5 13.5903" stroke="white"/>
<path d="M9 8.90039C10.3807 8.90039 11.5 7.7811 11.5 6.40039C11.5 5.01968 10.3807 3.90039 9 3.90039C7.61929 3.90039 6.5 5.01968 6.5 6.40039C6.5 7.7811 7.61929 8.90039 9 8.90039Z" stroke="white"/>
<path d="M10 12L12 14L16.5 9" stroke="white"/>
</g>
<defs>
<filter id="filter0_d_161_14" x="1.63959" y="2.93372" width="16.0987" height="13.477" filterUnits="userSpaceOnUse" color-interpolation-filters="sRGB">
<feFlood flood-opacity="0" result="BackgroundImageFix"/>
<feColorMatrix in="SourceAlpha" type="matrix" values="0 0 0 0 0 0 0 0 0 0 0 0 0 0 0 0 0 0 127 0" result="hardAlpha"/>
<feOffset dy="0.4"/>
<feGaussianBlur stdDeviation="0.433333"/>
<feComposite in2="hardAlpha" operator="out"/>
<feColorMatrix type="matrix" values="0 0 0 0 0.920833 0 0 0 0 0.920833 0 0 0 0 0.920833 0 0 0 0.21 0"/>
<feBlend mode="normal" in2="BackgroundImageFix" result="effect1_dropShadow_161_14"/>
<feBlend mode="normal" in="SourceGraphic" in2="effect1_dropShadow_161_14" result="shape"/>
</filter>
</defs>
</svg>
