<svg width="129" height="61" viewBox="0 0 129 61" fill="none" xmlns="http://www.w3.org/2000/svg">
<path d="M29.1989 55.8499C43.1833 55.8499 54.5198 44.4747 54.5198 30.4428C54.5198 16.4108 43.1833 5.03564 29.1989 5.03564C15.2145 5.03564 3.87793 16.4108 3.87793 30.4428C3.87793 44.4747 15.2145 55.8499 29.1989 55.8499Z" fill="#FE5E00"/>
<path d="M16.2273 26.0627H18.6946V35.9362H16.2273V26.0627ZM11.8621 24.9493H23.0453V27.1467H11.8621V24.9493Z" fill="white"/>
<path d="M25.7917 24.9493V34.8375L24.6676 33.7388H33.9337L32.8871 35.9362H23.3098V24.9493H25.7917Z" fill="white"/>
<path d="M36.0695 33.6216V31.6001H43.6612V33.6216H36.0695ZM41.5151 24.9493L46.6395 35.9362H43.997L39.515 25.9601H40.3326L35.8505 35.9362H33.208L38.3324 24.9493H41.5151Z" fill="white"/>
<path d="M64.7874 16.3624H66.6186V23.6904H64.7874V16.3624ZM61.5476 15.5361H69.8476V17.167H61.5476V15.5361ZM74.8387 23.8535C73.8925 23.8535 73.0617 23.6759 72.3465 23.3208C71.6387 22.9657 71.0861 22.4727 70.6887 21.8421C70.2914 21.2043 70.0927 20.4613 70.0927 19.6133C70.0927 18.7652 70.2914 18.0259 70.6887 17.3953C71.0861 16.7575 71.6387 16.2609 72.3465 15.9058C73.0617 15.5507 73.8925 15.373 74.8387 15.373C75.785 15.373 76.6122 15.5507 77.32 15.9058C78.0352 16.2609 78.5915 16.7575 78.9887 17.3953C79.3861 18.0259 79.5847 18.7652 79.5847 19.6133C79.5847 20.4613 79.3861 21.2043 78.9887 21.8421C78.5915 22.4727 78.0352 22.9657 77.32 23.3208C76.6122 23.6759 75.785 23.8535 74.8387 23.8535ZM74.8387 22.2118C75.4311 22.2118 75.9404 22.1067 76.3665 21.8965C76.7999 21.6863 77.1323 21.3855 77.3634 20.9941C77.6018 20.6027 77.721 20.1424 77.721 19.6133C77.721 19.0842 77.6018 18.6239 77.3634 18.2325C77.1323 17.8411 76.7999 17.5403 76.3665 17.3301C75.9404 17.1198 75.4311 17.0148 74.8387 17.0148C74.2536 17.0148 73.7443 17.1198 73.3109 17.3301C72.8775 17.5403 72.5416 17.8411 72.3032 18.2325C72.0721 18.6239 71.9565 19.0842 71.9565 19.6133C71.9565 20.1424 72.0721 20.6027 72.3032 20.9941C72.5416 21.3855 72.8775 21.6863 73.3109 21.8965C73.7443 22.1067 74.2536 22.2118 74.8387 22.2118ZM85.2849 15.5361C85.9277 15.5361 86.4839 15.6485 86.9535 15.8732C87.423 16.0978 87.7806 16.4131 88.0262 16.8191C88.279 17.225 88.4055 17.6961 88.4055 18.2325C88.4055 18.7689 88.279 19.24 88.0262 19.6459C87.7806 20.0445 87.423 20.3598 86.9535 20.5918C86.4839 20.8165 85.9277 20.9289 85.2849 20.9289H81.6983V19.4067H85.1873C85.6135 19.4067 85.9458 19.3017 86.1842 19.0914C86.4298 18.8812 86.5526 18.5949 86.5526 18.2325C86.5526 17.8628 86.4298 17.5765 86.1842 17.3736C85.9458 17.1633 85.6135 17.0583 85.1873 17.0583H81.8608L82.6952 16.1776V23.6904H80.8531V15.5361H85.2849ZM64.0398 26.4086V33.7474L63.2054 32.932H69.3059V34.5629H62.1977V26.4086H64.0398ZM71.6678 32.845V31.3446H77.3022V32.845H71.6678ZM75.7094 26.4086L79.5127 34.5629H77.5515L74.225 27.1587H74.8317L71.5052 34.5629H69.544L73.3473 26.4086H75.7094ZM85.5994 30.5401L85.7728 30.1704C86.4013 30.1849 86.9214 30.2863 87.3331 30.4748C87.7449 30.656 88.0483 30.9061 88.2433 31.225C88.4383 31.5367 88.5359 31.8955 88.5359 32.3014C88.5359 32.7363 88.431 33.124 88.2216 33.4648C88.0193 33.8055 87.7195 34.0736 87.3223 34.2693C86.9249 34.465 86.4265 34.5629 85.827 34.5629H80.1275L80.7559 30.377L80.1275 26.4086H85.6211C86.3723 26.4086 86.9539 26.5862 87.3656 26.9413C87.7846 27.2892 87.9941 27.7713 87.9941 28.3873C87.9941 28.7207 87.9146 29.0433 87.7557 29.355C87.604 29.6666 87.3511 29.9312 86.9972 30.1487C86.6505 30.3589 86.1845 30.4894 85.5994 30.5401ZM81.9479 34.0954L81.2435 33.2038H85.4477C85.8378 33.2038 86.1376 33.1132 86.3471 32.932C86.5638 32.7435 86.6721 32.4826 86.6721 32.1492C86.6721 31.8085 86.5493 31.5403 86.3037 31.3446C86.0581 31.1417 85.6969 31.0402 85.2202 31.0402H81.7962V29.7138H85.0035C85.3285 29.7138 85.5958 29.6231 85.8053 29.442C86.022 29.2535 86.1304 28.9925 86.1304 28.6591C86.1304 28.4054 86.04 28.1953 85.8595 28.0285C85.6788 27.8546 85.4188 27.7676 85.0793 27.7676H81.2435L81.9479 26.8761L82.5221 30.377L81.9479 34.0954ZM96.4808 29.779V31.1924H90.6621V29.779H96.4808ZM91.8974 30.4857L91.3556 33.9431L90.5538 33.0299H96.8167V34.5629H89.5027L90.1312 30.4857L89.5027 26.4086H96.7625V27.9416H90.5538L91.3556 27.0283L91.8974 30.4857ZM100.06 26.4086V33.7474L99.2252 32.932H105.326V34.5629H98.2175V26.4086H100.06ZM63.5305 43.7174V42.2171H69.165V43.7174H63.5305ZM67.5722 37.281L71.3754 45.4353H69.4142L66.0877 38.0312H66.6945L63.368 45.4353H61.4067L65.21 37.281H67.5722ZM80.0089 41.9018C80.0016 42.3947 79.904 42.8657 79.7163 43.3152C79.5356 43.7573 79.2756 44.1523 78.9361 44.5003C78.5966 44.841 78.1776 45.1091 77.6792 45.3048C77.1808 45.5005 76.6028 45.5984 75.9455 45.5984C75.3098 45.5984 74.7138 45.5042 74.1577 45.3157C73.6086 45.12 73.1246 44.841 72.7057 44.4785C72.2939 44.1161 71.9724 43.674 71.7413 43.1521C71.5101 42.623 71.3946 42.025 71.3946 41.3581C71.3946 40.6913 71.5101 40.0969 71.7413 39.5751C71.9797 39.046 72.3083 38.6002 72.7274 38.2377C73.1463 37.8753 73.6376 37.5999 74.201 37.4114C74.7645 37.2157 75.3784 37.1179 76.043 37.1179C76.9099 37.1179 77.6611 37.2556 78.2968 37.531C78.9325 37.7992 79.4454 38.1725 79.8355 38.6509C80.2328 39.1293 80.4783 39.6766 80.5723 40.2926H78.7194C78.6471 39.9593 78.4882 39.6729 78.2427 39.4337C78.0043 39.1945 77.6972 39.0097 77.3216 38.8792C76.9532 38.7488 76.527 38.6835 76.043 38.6835C75.4723 38.6835 74.9775 38.7886 74.5586 38.9988C74.1468 39.2017 73.8253 39.5026 73.5942 39.9012C73.3702 40.2998 73.2583 40.7856 73.2583 41.3581C73.2583 41.9307 73.3775 42.42 73.6159 42.8259C73.8543 43.2319 74.1937 43.5435 74.6344 43.7609C75.075 43.9712 75.5951 44.0762 76.1947 44.0762C76.7799 44.0762 77.2927 43.9856 77.7334 43.8044C78.174 43.6159 78.5207 43.355 78.7736 43.0216C79.0337 42.6809 79.1817 42.2786 79.2179 41.8148L80.0089 41.9018ZM76.444 42.6519V41.3146H80.659V45.4353H79.3371L79.0878 42.1301L79.4671 42.6519H76.444ZM88.8515 40.6514V42.0648H83.0328V40.6514H88.8515ZM84.268 41.3581L83.7262 44.8156L82.9244 43.9023H89.1874V45.4353H81.8734L82.5018 41.3581L81.8734 37.281H89.1332V38.814H82.9244L83.7262 37.9007L84.268 41.3581ZM98.1188 44.2176L97.4795 44.3154V37.281H99.2674V45.4353H96.9377L91.7367 38.4008L92.3651 38.303V45.4353H90.5881V37.281H92.9719L98.1188 44.2176ZM109.725 42.1192C109.645 42.8078 109.403 43.4167 108.999 43.9458C108.601 44.4676 108.074 44.8736 107.417 45.1635C106.767 45.4534 106.023 45.5984 105.185 45.5984C104.26 45.5984 103.447 45.4208 102.747 45.0656C102.053 44.7105 101.511 44.2176 101.121 43.587C100.731 42.9492 100.536 42.2062 100.536 41.3581C100.536 40.5101 100.731 39.7708 101.121 39.1402C101.511 38.5023 102.053 38.0058 102.747 37.6506C103.447 37.2955 104.26 37.1179 105.185 37.1179C106.023 37.1179 106.767 37.2629 107.417 37.5528C108.074 37.8427 108.601 38.2486 108.999 38.7705C109.403 39.2924 109.645 39.9012 109.725 40.5971H107.872C107.8 40.2129 107.644 39.8831 107.406 39.6077C107.168 39.325 106.861 39.1075 106.485 38.9553C106.109 38.8031 105.672 38.727 105.174 38.727C104.603 38.727 104.108 38.8357 103.689 39.0532C103.278 39.2634 102.96 39.5678 102.736 39.9665C102.512 40.3579 102.4 40.8217 102.4 41.3581C102.4 41.8945 102.512 42.3621 102.736 42.7607C102.96 43.1521 103.278 43.4565 103.689 43.674C104.108 43.8842 104.603 43.9893 105.174 43.9893C105.672 43.9893 106.109 43.9168 106.485 43.7718C106.861 43.6196 107.168 43.4058 107.406 43.1303C107.644 42.8477 107.8 42.5106 107.872 42.1192H109.725ZM113.253 45.4353V41.4995H115.095V45.4353H113.253ZM109.428 37.281H111.476L114.607 41.2494H113.719L116.851 37.281H118.898L114.759 42.5324L113.578 42.5432L109.428 37.281Z" fill="#FE5E00"/>
</svg>
