<svg width="800" height="800" viewBox="0 0 800 800" fill="none" xmlns="http://www.w3.org/2000/svg">
<path fill-rule="evenodd" clip-rule="evenodd" d="M398.266 41.6667H401.733C431.683 41.6657 456.656 41.665 476.483 44.3303C497.41 47.144 516.303 53.333 531.483 68.5153C546.666 83.6977 552.856 102.591 555.67 123.517C557.64 138.171 558.153 155.636 558.286 175.844C579.903 176.538 599.173 177.802 616.3 180.105C655.38 185.359 687.013 196.429 711.96 221.375C736.903 246.32 747.973 277.952 753.23 317.033C758.333 355.007 758.333 403.527 758.333 464.787V468.547C758.333 529.807 758.333 578.327 753.23 616.3C747.973 655.38 736.903 687.013 711.96 711.96C687.013 736.903 655.38 747.973 616.3 753.23C578.326 758.333 529.806 758.333 468.546 758.333H331.453C270.194 758.333 221.673 758.333 183.699 753.23C144.619 747.973 112.987 736.903 88.0412 711.96C63.0958 687.013 52.0252 655.38 46.7712 616.3C41.6655 578.327 41.6659 529.807 41.6665 468.547V464.787C41.6659 403.527 41.6655 355.007 46.7712 317.033C52.0252 277.952 63.0958 246.32 88.0412 221.375C112.987 196.429 144.619 185.359 183.699 180.105C200.825 177.802 220.096 176.538 241.713 175.844C241.847 155.636 242.36 138.171 244.33 123.517C247.144 102.591 253.333 83.6977 268.515 68.5153C283.698 53.333 302.591 47.144 323.517 44.3303C343.343 41.665 368.316 41.6657 398.266 41.6667ZM291.726 175.059C304.331 175 317.564 175 331.452 175H468.546C482.436 175 495.67 175 508.273 175.059C508.133 156.049 507.666 141.708 506.116 130.18C504.046 114.798 500.473 108.215 496.13 103.871C491.786 99.5267 485.203 95.9527 469.82 93.8847C453.72 91.72 432.133 91.6667 400 91.6667C367.866 91.6667 346.28 91.72 330.179 93.8847C314.797 95.9527 308.214 99.5267 303.871 103.871C299.527 108.215 295.953 114.798 293.885 130.18C292.335 141.708 291.867 156.049 291.726 175.059ZM190.362 229.659C156.825 234.168 137.504 242.623 123.397 256.73C109.29 270.837 100.834 290.159 96.3252 323.695C91.7195 357.95 91.6665 403.107 91.6665 466.667C91.6665 530.227 91.7195 575.383 96.3252 609.64C100.834 643.173 109.29 662.497 123.397 676.603C137.504 690.71 156.825 699.167 190.362 703.673C224.617 708.28 269.772 708.333 333.333 708.333H466.666C530.226 708.333 575.383 708.28 609.64 703.673C643.173 699.167 662.496 690.71 676.603 676.603C690.71 662.497 699.167 643.173 703.673 609.64C708.28 575.383 708.333 530.227 708.333 466.667C708.333 403.107 708.28 357.95 703.673 323.695C699.167 290.159 690.71 270.837 676.603 256.73C662.496 242.623 643.173 234.168 609.64 229.659C575.383 225.053 530.226 225 466.666 225H333.333C269.772 225 224.617 225.053 190.362 229.659ZM400 308.333C413.806 308.333 425 319.526 425 333.333V333.673C461.293 342.817 491.666 371.433 491.666 411.11C491.666 424.917 480.473 436.11 466.666 436.11C452.86 436.11 441.666 424.917 441.666 411.11C441.666 398.31 427.473 380.557 400 380.557C372.526 380.557 358.333 398.31 358.333 411.11C358.333 423.913 372.526 441.667 400 441.667C446.163 441.667 491.666 473.66 491.666 522.223C491.666 561.9 461.293 590.517 425 599.66V600C425 613.807 413.806 625 400 625C386.193 625 375 613.807 375 600V599.66C338.706 590.517 308.333 561.9 308.333 522.223C308.333 508.417 319.526 497.223 333.333 497.223C347.14 497.223 358.333 508.417 358.333 522.223C358.333 535.023 372.526 552.777 400 552.777C427.473 552.777 441.666 535.023 441.666 522.223C441.666 509.42 427.473 491.667 400 491.667C353.836 491.667 308.333 459.677 308.333 411.11C308.333 371.433 338.706 342.817 375 333.673V333.333C375 319.526 386.193 308.333 400 308.333Z" fill="white"/>
</svg>
