<svg width="800" height="800" viewBox="0 0 800 800" fill="none" xmlns="http://www.w3.org/2000/svg">
<path fill-rule="evenodd" clip-rule="evenodd" d="M75 200C75 186.193 86.193 175 100 175H700C713.807 175 725 186.193 725 200C725 213.807 713.807 225 700 225H100C86.193 225 75 213.807 75 200ZM75 333.333C75 319.526 86.193 308.333 100 308.333H700C713.807 308.333 725 319.526 725 333.333C725 347.14 713.807 358.333 700 358.333H100C86.193 358.333 75 347.14 75 333.333ZM669.833 413.09C704.343 425.533 725 459.49 725 501.203C725 531.123 707.527 558.183 689.813 578.583C671.4 599.79 648.747 618.293 630.807 631.497C629.983 632.1 629.153 632.717 628.317 633.337C616.323 642.233 602.703 652.337 583.333 652.337C563.963 652.337 550.343 642.233 538.35 633.337C537.513 632.717 536.683 632.1 535.86 631.497C517.92 618.293 495.267 599.79 476.853 578.583C459.14 558.183 441.667 531.123 441.667 501.203C441.667 459.49 462.323 425.533 496.833 413.09C524.68 403.05 555.847 409.07 583.333 428.457C610.82 409.07 641.987 403.05 669.833 413.09ZM652.873 460.127C641.64 456.077 622.223 457.773 600.877 478.8C591.143 488.383 575.523 488.383 565.79 478.8C544.443 457.773 525.027 456.077 513.793 460.127C503.097 463.983 491.667 475.987 491.667 501.203C491.667 512.443 498.943 527.763 514.607 545.8C529.57 563.033 548.923 579.03 565.497 591.223C573.273 596.947 577.07 599.667 580.107 601.29C582.07 602.34 582.623 602.337 583.28 602.337H583.333H583.387C584.043 602.337 584.597 602.34 586.56 601.29C589.6 599.667 593.397 596.947 601.17 591.223C617.743 579.03 637.097 563.033 652.06 545.8C667.723 527.763 675 512.443 675 501.203C675 475.987 663.57 463.983 652.873 460.127ZM75 466.667C75 452.86 86.193 441.667 100 441.667H333.333C347.14 441.667 358.333 452.86 358.333 466.667C358.333 480.473 347.14 491.667 333.333 491.667H100C86.193 491.667 75 480.473 75 466.667ZM75 600C75 586.193 86.193 575 100 575H333.333C347.14 575 358.333 586.193 358.333 600C358.333 613.807 347.14 625 333.333 625H100C86.193 625 75 613.807 75 600Z" fill="black"/>
</svg>
