<svg width="691" height="601" viewBox="0 0 691 601" fill="none" xmlns="http://www.w3.org/2000/svg">
<path d="M78.902 34L612.236 567.333M495.569 459.197C450.482 483.483 399.522 500.663 345.569 500.663C227.88 500.663 124.447 418.927 65.1323 359.96C49.4756 344.397 41.6486 336.613 36.6656 321.337C33.112 310.443 33.111 290.887 36.6656 279.99C41.65 264.717 49.4933 256.917 65.1813 241.323C95.0773 211.607 136.173 176.12 184.645 148.225M595.569 388.45C606.669 378.683 616.839 369.077 625.962 360.01L626.059 359.907C641.679 344.38 649.512 336.597 654.486 321.353C658.039 310.46 658.032 290.893 654.479 280C649.499 264.73 641.662 256.923 626.016 241.37C566.699 182.403 463.256 100.667 345.569 100.667C334.319 100.667 323.199 101.414 312.236 102.816M389.666 350.667C377.912 361.04 362.476 367.333 345.569 367.333C308.749 367.333 278.902 337.487 278.902 300.667C278.902 282.683 286.022 266.37 297.599 254.377" stroke="#858585" stroke-width="66.6667" stroke-linecap="round" stroke-linejoin="round"/>
</svg>
