<svg width="384" height="532" viewBox="0 0 384 532" fill="none" xmlns="http://www.w3.org/2000/svg">
<g clip-path="url(#clip0_196_9)">
<path d="M30.3629 -0.13324C11.6963 6.53343 1.29622 21.7335 0.0962248 44.1335L-0.570432 56.6668L-124.037 56.9335L-247.504 57.3334L-254.17 60.6668C-262.037 64.5335 -270.97 73.0668 -274.57 80.2668C-276.037 83.0668 -277.904 88.9334 -278.837 93.3334C-279.904 99.2001 -280.17 184.267 -279.904 415.333L-279.504 729.333L-275.77 737.333C-270.97 747.467 -261.104 756.933 -251.37 760.667C-244.17 763.333 -242.037 763.333 -88.1705 763.333C65.2962 763.333 67.8296 763.333 75.0296 760.667C85.0296 756.8 93.5629 748.933 98.6296 738.533C102.23 731.333 103.03 728 103.563 717.333L104.23 704.667H191.83H279.43L280.096 717.067C281.163 736.933 288.896 750.267 304.096 758.8L311.163 762.667L469.43 763.067C626.096 763.333 627.696 763.333 634.896 760.667C645.163 756.8 653.563 748.933 658.763 738.267L663.163 729.333L663.563 415.333C663.83 183.867 663.563 99.2001 662.363 93.3334C659.696 78.8001 652.363 68.8002 639.563 61.8668L631.163 57.3334L507.696 56.9335L384.23 56.6668L383.563 44.2668C382.363 22.4001 372.496 7.20011 355.03 0.80011C347.83 -1.99989 345.963 -1.99988 191.43 -1.99988C67.1629 -1.86654 34.2296 -1.46657 30.3629 -0.13324ZM345.696 28.9335C353.83 32.5335 353.163 7.33347 353.163 350.667C353.163 558 352.763 665.6 351.83 667.333C351.163 668.667 348.896 671.067 347.03 672.533C343.43 675.333 343.296 675.333 191.696 675.333H39.8296L35.6962 671.6C32.8962 669.067 31.1629 666 30.3629 662C29.8296 658.667 29.4296 517.067 29.5629 346.667C29.8296 55.0668 29.9629 37.2001 32.0963 34.0001C33.4296 32.2668 35.8296 30.0001 37.4296 29.0668C41.6962 26.8001 340.63 26.5335 345.696 28.9335ZM0.0962248 378.4L0.496249 670.667L4.89624 679.6C9.69624 689.333 16.3629 696 26.3629 700.933C31.6963 703.467 35.2962 704 53.1629 704.667L73.8296 705.333L74.2296 711.6C74.8963 721.333 72.3629 728.4 67.4296 731.333C63.2962 733.867 59.5629 734 -87.9038 734C-226.57 734 -239.37 733.867 -242.837 731.733C-244.97 730.533 -247.237 728.133 -248.037 726.4C-250.17 721.733 -250.037 98.1335 -248.037 93.4668C-244.437 85.8668 -248.837 86.0001 -119.237 86.0001H-0.170438L0.0962248 378.4ZM628.63 90.5334L633.163 95.0668V409.2C633.163 632.133 632.763 724.133 631.696 726.4C630.896 728.133 628.63 730.533 626.496 731.733C623.03 733.867 610.23 734 471.83 734C307.696 734 315.963 734.4 311.83 726.533C310.63 724.4 309.83 719.333 309.83 714.133V705.333L330.496 704.667C348.363 704 351.963 703.467 357.296 700.933C367.296 696 373.963 689.333 378.763 679.6L383.163 670.667L383.563 620.933L383.963 571.067L383.936 565.5L383.891 580L383.963 556.5L383.83 543.2L377.5 534.5C369.9 534.367 384.363 543.067 383.83 543.2C383.163 543.2 383.83 536.4 383.83 528V512.667L383.83 497.5L383.83 482.933C380.363 482.933 375.696 482.469 383.83 483.402L383.83 482.933L383.83 468.533V454L383.83 446L383.83 456.5V439V430V429.5C379.296 429.1 377.296 430.5 383.83 430.5L383.83 424.667V255.333V86.0001H503.963H624.096L628.63 90.5334Z" fill="#999999"/>
<path d="M177.163 78.6665C177.163 84.5332 176.629 86.2665 174.896 86.7998C173.563 87.1998 168.763 89.3332 164.229 91.4665C137.563 104.133 132.229 141.866 154.096 162.133C163.563 170.8 170.096 173.066 188.096 174C201.029 174.533 204.363 175.2 207.429 177.467C214.629 182.8 215.429 193.6 209.163 200C206.629 202.533 204.363 202.667 173.429 203.333L140.496 204V218.667V233.333L158.896 233.733L177.163 234.133V241.333V248.667H191.829H206.496V240.667C206.496 235.2 207.029 232.667 208.229 232.667C209.029 232.667 213.429 230.933 217.829 228.8C245.429 215.867 251.829 179.6 230.363 158.133C221.163 148.933 212.629 145.6 195.829 145.066C188.096 144.666 180.229 143.866 178.229 143.066C167.563 139.066 167.696 122.666 178.629 117.066C180.896 115.866 190.896 115.333 212.896 115.333H243.829V100.666V85.9998H225.163H206.496V78.6665V71.3332H191.829H177.163V78.6665Z" fill="#999999"/>
<path d="M125.296 313.467C110.23 316 97.1629 326.8 91.6963 341.2C87.8296 351.6 88.4963 367.067 93.4296 376.667C97.6963 384.8 107.163 393.867 115.563 397.733C121.696 400.667 122.896 400.667 191.83 400.667C261.163 400.667 261.83 400.667 268.096 397.733C276.63 393.733 285.963 384.8 290.23 376.667C295.163 366.933 295.83 351.6 291.696 340.667C287.83 330.267 277.696 320.133 266.896 315.733C259.163 312.667 258.896 312.667 195.83 312.4C161.03 312.4 129.296 312.8 125.296 313.467ZM258.496 344.933C265.163 348.8 266.896 356.667 263.03 364.133C259.163 371.867 257.83 372 191.563 372C136.763 372 130.763 371.733 126.496 369.6C121.296 367.067 118.496 362.533 118.496 356.933C118.496 352.133 121.963 346 125.696 344.133C127.43 343.333 152.096 342.8 191.563 342.8C248.23 342.667 255.163 342.933 258.496 344.933Z" fill="#999999"/>
<g clip-path="url(#clip1_196_9)">
<path d="M30.3629 -168.133C11.6963 -161.467 1.29622 -146.267 0.0962248 -123.867L-0.570432 -111.333L-124.037 -111.067L-247.504 -110.667L-254.17 -107.333C-262.037 -103.467 -270.97 -94.9332 -274.57 -87.7332C-276.037 -84.9332 -277.904 -79.0666 -278.837 -74.6666C-279.904 -68.7999 -280.17 16.2668 -279.904 247.333L-279.504 561.333L-275.77 569.333C-270.97 579.467 -261.104 588.933 -251.37 592.667C-244.17 595.333 -242.037 595.333 -88.1705 595.333C65.2962 595.333 67.8296 595.333 75.0296 592.667C85.0296 588.8 93.5629 580.933 98.6296 570.533C102.23 563.333 103.03 560 103.563 549.333L104.23 536.667H191.83H279.43L280.096 549.067C281.163 568.933 288.896 582.267 304.096 590.8L311.163 594.667L469.43 595.067C626.096 595.333 627.696 595.333 634.896 592.667C645.163 588.8 653.563 580.933 658.763 570.267L663.163 561.333L663.563 247.333C663.83 15.8668 663.563 -68.7999 662.363 -74.6666C659.696 -89.1999 652.363 -99.1998 639.563 -106.133L631.163 -110.667L507.696 -111.067L384.23 -111.333L383.563 -123.733C382.363 -145.6 372.496 -160.8 355.03 -167.2C347.83 -170 345.963 -170 191.43 -170C67.1629 -169.867 34.2296 -169.467 30.3629 -168.133ZM345.696 -139.067C353.83 -135.467 353.163 -160.667 353.163 182.667C353.163 390 352.763 497.6 351.83 499.333C351.163 500.667 348.896 503.067 347.03 504.533C343.43 507.333 343.296 507.333 191.696 507.333H39.8296L35.6962 503.6C32.8962 501.067 31.1629 498 30.3629 494C29.8296 490.667 29.4296 349.067 29.5629 178.667C29.8296 -112.933 29.9629 -130.8 32.0963 -134C33.4296 -135.733 35.8296 -138 37.4296 -138.933C41.6962 -141.2 340.63 -141.467 345.696 -139.067ZM0.0962248 210.4L0.496249 502.667L4.89624 511.6C9.69624 521.333 16.3629 528 26.3629 532.933C31.6963 535.467 35.2962 536 53.1629 536.667L73.8296 537.333L74.2296 543.6C74.8963 553.333 72.3629 560.4 67.4296 563.333C63.2962 565.867 59.5629 566 -87.9038 566C-226.57 566 -239.37 565.867 -242.837 563.733C-244.97 562.533 -247.237 560.133 -248.037 558.4C-250.17 553.733 -250.037 -69.8665 -248.037 -74.5332C-244.437 -82.1332 -248.837 -81.9999 -119.237 -81.9999H-0.170438L0.0962248 210.4ZM628.63 -77.4666L633.163 -72.9332V241.2C633.163 464.133 632.763 556.133 631.696 558.4C630.896 560.133 628.63 562.533 626.496 563.733C623.03 565.867 610.23 566 471.83 566C307.696 566 315.963 566.4 311.83 558.533C310.63 556.4 309.83 551.333 309.83 546.133V537.333L330.496 536.667C348.363 536 351.963 535.467 357.296 532.933C367.296 528 373.963 521.333 378.763 511.6L383.163 502.667L383.563 452.933L383.963 403.067L383.936 397.5L383.891 412L383.963 388.5L383.83 375.2L377.5 366.5C369.9 366.367 384.363 375.067 383.83 375.2C383.163 375.2 383.83 368.4 383.83 360V344.667L383.83 329.5L383.83 314.933C380.363 314.933 375.696 314.469 383.83 315.402L383.83 314.933L383.83 300.533V286L383.83 278L383.83 288.5V271V262V261.5C379.296 261.1 377.296 262.5 383.83 262.5L383.83 256.667V87.3335V-81.9999H503.963H624.096L628.63 -77.4666Z" fill="#999999"/>
</g>
</g>
<defs>
<clipPath id="clip0_196_9">
<rect width="384" height="532" fill="white"/>
</clipPath>
<clipPath id="clip1_196_9">
<rect width="384" height="706" fill="white" transform="translate(0 -170)"/>
</clipPath>
</defs>
</svg>
